G04 ================== begin FILE IDENTIFICATION RECORD ==================*
G04 Layout Name:  MACHLORA_02_03Jul25_02.brd*
G04 Film Name:    loraBOTTOM*
G04 File Format:  Gerber RS274X*
G04 File Origin:  Cadence Allegro -unreleased*
G04 Origin Date:  Wed Mar 25 15:54:42 2026*
G04 *
G04 Layer:  DRAWING FORMAT/FILM_ALL*
G04 Layer:  ETCH/BOTTOM*
G04 Layer:  PIN/BOTTOM*
G04 Layer:  VIA CLASS/BOTTOM*
G04 *
G04 Offset:    (0.0000 0.0000)*
G04 Mirror:    No*
G04 Mode:      Positive*
G04 Rotation:  0*
G04 FullContactRelief:  Yes*
G04 UndefLineWidth:     0.1270*
G04 ================== end FILE IDENTIFICATION RECORD ====================*
%FSTAX25Y25*MOMM*%
%IR0*IPPOS*OFA0.00000B0.00000*MIA0B0*SFA1.00000B1.00000*%
%ADD11C,.5588*%
%ADD17C,1.222*%
%ADD20C,1.016*%
%ADD16C,1.008*%
%ADD12R,3.81X2.54*%
%ADD23C,1.37*%
%ADD22C,1.605*%
%ADD14C,1.218*%
%ADD19R,1.222X1.222*%
%ADD15C,1.95*%
%ADD10C,3.175*%
%ADD24R,1.37X1.37*%
%ADD25C,1.7272*%
%ADD21R,1.605X1.605*%
%ADD13R,1.218X1.218*%
%ADD18R,1.95X1.95*%
%ADD26C,.3*%
%ADD36R,4.4104X3.1404*%
%ADD30C,2.2054*%
%ADD29R,2.2054X2.2054*%
%ADD35C,2.5504*%
%ADD39C,1.8224*%
%ADD38C,1.1592*%
%ADD40C,1.6084*%
%ADD33R,2.5504X2.5504*%
%ADD28C,4.2904*%
%ADD34C,2.3276*%
%ADD27C,4.3184*%
%ADD37C,1.9704*%
%ADD31C,1.8184*%
%ADD32R,1.8184X1.8184*%
G75*
%LPD*%
G75*
G36*
G01X646452Y895D02*
X985D01*
Y005D01*
X005D01*
Y895D01*
X450868D01*
Y770752D01*
X373932D01*
X360488Y757308D01*
Y711588D01*
X343978Y695078D01*
Y240912D01*
X360292Y224598D01*
X476491D01*
X476732Y223658D01*
G03X4851Y217162I008368J0021417D01*
G03X48621Y217234I-000003J0086378D01*
G02X489004Y214383I0003216J-0024794D01*
G03X488908Y2131I0085419J-0012842D01*
G03X489004Y211817I0086379J0000012D01*
G02X48621Y208966I-0024724J-0003716D01*
G03X4851Y209038I-001113J-0085658D01*
G03Y191762I0J-008638D01*
G03X488547Y192479I0000013J0086383D01*
G02X492044Y190187I0009972J-0022923D01*
G01Y181915D01*
X453169Y143041D01*
G03X451558Y13915I0038914J-0038901D01*
G01Y113432D01*
X451506Y113257D01*
G03X451264Y1116I005554J-0016573D01*
G03X462856I005796J0D01*
G03X462614Y113257I-005796J-0000003D01*
G01X462562Y113432D01*
Y136871D01*
X501437Y175745D01*
G03X503048Y179636I-0038914J0038901D01*
G01Y206441D01*
G03X506184Y2131I-0055019J006659D01*
G03X497546Y221738I-008638J0D01*
G03X494809Y221293I-0000002J-008638D01*
G02X493236Y222899I-0003957J0011858D01*
G03X493468Y223658I-0081358J0029018D01*
G01X493709Y224598D01*
X644298D01*
X651918Y232218D01*
X681108D01*
X689802Y240912D01*
Y351402D01*
X698888Y360488D01*
X753518D01*
X769832Y376802D01*
Y471159D01*
X770826Y471367D01*
G03Y482713I-0011856J005673D01*
G01X769832Y482921D01*
Y484258D01*
X769822Y484268D01*
Y542678D01*
X748428Y564072D01*
X662552D01*
X535552Y437072D01*
X427108D01*
X419292Y444888D01*
Y477908D01*
X407862Y489338D01*
Y69961D01*
G02X410072Y702093I0024999J-0000001D01*
G03X414499Y705094I-0006719J005757D01*
G01X414586Y705255D01*
X422649Y713318D01*
X644151D01*
X669764Y687705D01*
X669683Y687093D01*
G03X669598Y6858I0097671J-0012914D01*
G03X67945Y695652I009852J0D01*
G03X678157Y695567I-0000016J-0098521D01*
G01X677545Y695486D01*
X649975Y723056D01*
X668408Y741488D01*
X670211D01*
Y740027D01*
X670142Y739828D01*
G03X669598Y7366I0093079J-0032285D01*
G03X689302I009852J0D01*
G03X689116Y738505I-009852J-0000003D01*
G02X691569Y741488I0024529J000483D01*
G01X759848D01*
X767468Y749108D01*
X769832D01*
Y750709D01*
X770826Y750917D01*
G03Y762263I-0011856J005673D01*
G01X769832Y762471D01*
Y769988D01*
X738258Y801562D01*
X671442D01*
X666558Y796678D01*
Y777628D01*
X659847Y770917D01*
X646452D01*
Y895D01*
G37*
G36*
G01X6731Y79756D02*
X7366D01*
X76583Y76833D01*
Y75313D01*
X75819Y74549D01*
X683704D01*
X683462Y745598D01*
G03X675438I-004012J-008997D01*
G01X675196Y74549D01*
X66675D01*
X64897Y72771D01*
X41656D01*
X40386Y71501D01*
Y709562D01*
X403815Y709398D01*
G03X403604Y70785I0055848J-0015496D01*
G03X403815Y706302I0057958J0000016D01*
G01X40386Y706138D01*
Y684705D01*
X403282Y684336D01*
G03Y674564I0031182J-004886D01*
G01X40386Y674195D01*
Y48768D01*
X41529Y47625D01*
Y44323D01*
X42545Y43307D01*
X53721D01*
X538819Y434679D01*
G02X54302Y433486I0017679J-0017678D01*
G03X54866Y429024I00564J0013335D01*
G03X554456Y43482I0J005796D01*
G03X549994Y44046I-0057955J0D01*
G02X548801Y444661I0005748J0024331D01*
G01X66421Y56007D01*
X74677D01*
X76582Y54102D01*
Y48261D01*
X76583Y4826D01*
Y37846D01*
X75186Y36449D01*
X69723D01*
X6858Y35306D01*
Y24257D01*
X67945Y23622D01*
X65026D01*
X64264Y2286D01*
X493312D01*
X49298Y229338D01*
G03X47722I-00788J-0035377D01*
G01X476888Y2286D01*
X424465D01*
G02X422089Y231877I-0000001J0024998D01*
G03X422376Y23368I-0055093J0018013D01*
G03X410784I-005796J0D01*
G03X411071Y231877I0057963J-0000017D01*
G02X408695Y2286I-0023759J-0007772D01*
G01X36195D01*
X34798Y24257D01*
Y266004D01*
G02X349234Y267254I00125J0D01*
G01X34925D01*
G03Y278846I0J005796D01*
G01X349234D01*
G02X34798Y280096I-000004J00125D01*
G01Y323154D01*
G02X349234Y324404I00125J0D01*
G01X34925D01*
G03Y335996I0J005796D01*
G01X349234D01*
G02X34798Y337246I-000004J00125D01*
G01Y390894D01*
X348107Y391154D01*
G03Y396246I-0052081J002546D01*
G01X34798Y396506D01*
Y412054D01*
G02X349234Y413304I00125J0D01*
G01X34925D01*
G03Y424896I0J005796D01*
G01X349234D01*
G02X34798Y426146I-000004J00125D01*
G01Y507304D01*
G02X349234Y508554I00125J0D01*
G01X34925D01*
G03Y520146I0J005796D01*
G01X349234D01*
G02X34798Y521396I-000004J00125D01*
G01Y558104D01*
G02X349234Y559354I00125J0D01*
G01X34925D01*
G03Y570946I0J005796D01*
G01X349234D01*
G02X34798Y572196I-000004J00125D01*
G01Y598744D01*
G02X349237Y599994I00125J0000001D01*
G01X34927D01*
G03Y611586I0J005796D01*
G01X349237D01*
G02X34798Y612836I-000007J0012499D01*
G01Y69342D01*
X36449Y70993D01*
Y715708D01*
G02X367385Y718177I0025001J0000003D01*
G03X3683Y718104I000917J0057228D01*
G03Y729696I0J005796D01*
G03X367385Y729623I000002J-0057958D01*
G02X36449Y732092I-0003949J0024687D01*
G01Y75565D01*
X37559Y76675D01*
X450868D01*
Y766748D01*
X646452D01*
Y76675D01*
X6477D01*
X647865Y766915D01*
X661505D01*
X67056Y77597D01*
Y79502D01*
X6731Y79756D01*
G37*
%LPC*%
G75*
G36*
G01X687108Y644961D02*
X681355Y650714D01*
X680743Y650633D01*
G02X67945Y650548I-0012914J0097671D01*
G02X689302Y6604I0J009852D01*
G02X689217Y659107I-0098521J-0000016D01*
G01X689136Y658495D01*
X696501Y651131D01*
G02X698112Y64724I-0038914J-0038901D01*
G01Y589032D01*
X698164Y588857D01*
G02X698406Y5872I-005554J-0016573D01*
G02X686814I-005796J0D01*
G02X687056Y588857I005796J-0000003D01*
G01X687108Y589032D01*
Y644961D01*
G37*
G36*
G01X47946Y298671D02*
G03X476332Y298346I-0013631J-0020957D01*
G02X4699Y295688I-006432J0064533D01*
G02Y313912I0J009112D01*
G02X477481Y309855I0J-0091115D01*
G03X480483Y308918I0020801J0013867D01*
G02X48262Y309326I0021362J-0053882D01*
G02Y297734I0J-005796D01*
G02X47946Y298671I0J005797D01*
G37*
G54D36*
X0305Y4191D03*
G54D30*
X60575Y0734D03*
Y1115D03*
G54D29*
X58035Y0734D03*
Y1115D03*
G54D35*
X94575Y3444D03*
Y466D03*
Y61395D03*
Y73555D03*
X38735Y4548D03*
G54D39*
X4445Y2794D03*
G54D38*
X60575Y23981D03*
X6248Y23854D03*
X48897Y25146D03*
X6147Y2667D03*
X42926Y30099D03*
X56517Y2921D03*
X45085Y3048D03*
X62232Y3175D03*
X56771Y34925D03*
X6147Y35735D03*
Y3891D03*
X63375Y3764D03*
X56771Y43482D03*
X37848Y47498D03*
X63375Y45895D03*
X69725Y47005D03*
X68455Y49545D03*
X35816Y65786D03*
X73154Y77597D03*
G54D40*
X38735Y67945D03*
G54D33*
X93305Y1616D03*
X94575Y3952D03*
Y5168D03*
Y66475D03*
Y78635D03*
G54D28*
X95Y04D03*
Y86D03*
G54D34*
X9322Y2259D03*
Y2767D03*
G54D27*
X03Y04D03*
Y86D03*
G54D37*
X67945Y7112D03*
Y762D03*
G54D31*
X31625Y1143D03*
Y1397D03*
X574Y15595D03*
X5994D03*
X7518Y18135D03*
X11305Y7112D03*
Y7366D03*
G54D32*
X5486Y15595D03*
X31625Y1651D03*
X7264Y18135D03*
X11305Y6858D03*
%LPD*%
G75*
G54D10*
X03Y04D03*
Y86D03*
X95Y04D03*
Y86D03*
G54D20*
X497546Y2131D03*
X4851Y2004D03*
Y2258D03*
G54D11*
X01526Y08509D03*
Y20701D03*
Y30226D03*
X01399Y37084D03*
X01907Y52705D03*
X02161Y60452D03*
X02288Y6858D03*
X02034Y75946D03*
X02288Y81788D03*
X03812Y15113D03*
X04066Y24765D03*
Y34925D03*
X08892Y01651D03*
X09017Y34925D03*
Y3683D03*
Y38481D03*
X08384Y45593D03*
X09019Y49149D03*
X06479Y56007D03*
X06606Y63119D03*
X06352Y7112D03*
X07368Y79756D03*
X08384Y88773D03*
X10543Y08763D03*
X09527Y13081D03*
X0939Y53346D03*
X11295D03*
X0939Y54616D03*
Y55886D03*
X11295Y54616D03*
Y55886D03*
X0939Y57156D03*
Y58426D03*
X11295D03*
Y57156D03*
X0939Y62236D03*
Y60966D03*
Y59696D03*
X11295D03*
Y60966D03*
Y62236D03*
X14226Y46863D03*
X132Y53346D03*
Y54616D03*
Y55886D03*
Y58426D03*
Y57156D03*
Y59696D03*
Y60966D03*
Y62236D03*
X14607Y67691D03*
X16639Y1143D03*
X15877Y18542D03*
X16131Y24257D03*
X14986Y34798D03*
Y36322D03*
Y38481D03*
X15105Y53346D03*
X1701D03*
X15105Y54616D03*
Y55886D03*
X1701Y54616D03*
Y55886D03*
X15105Y58426D03*
Y57156D03*
X1701Y58426D03*
Y57156D03*
X15105Y59696D03*
Y60966D03*
Y62236D03*
X1701Y59696D03*
Y60966D03*
Y62236D03*
X22989Y64897D03*
X23497Y83312D03*
X22862Y88392D03*
X2592Y29839D03*
Y28569D03*
Y27299D03*
Y31109D03*
Y32379D03*
Y33649D03*
Y34919D03*
Y36189D03*
X26164Y63881D03*
X27825Y29839D03*
Y28569D03*
Y27299D03*
Y31109D03*
Y32379D03*
Y33649D03*
Y34919D03*
Y36189D03*
X27561Y67437D03*
X27307Y73152D03*
X31635Y29839D03*
Y28569D03*
X2973Y29839D03*
Y28569D03*
X31635Y27299D03*
X2973D03*
X31635Y31109D03*
Y32379D03*
X2973Y31109D03*
Y32379D03*
X31635Y33649D03*
X2973D03*
X31635Y34919D03*
X2973D03*
X31635Y36189D03*
X2973D03*
X30101Y42291D03*
X31117Y48387D03*
X30101Y85471D03*
X34419Y17653D03*
X3354Y28569D03*
Y29839D03*
Y27299D03*
X34925Y27305D03*
X3354Y32379D03*
Y31109D03*
X34925Y3302D03*
X3354Y33649D03*
Y34919D03*
Y36189D03*
X34925Y4191D03*
X3429Y3937D03*
X34925Y51435D03*
Y56515D03*
X34927Y60579D03*
X35308Y72357D03*
X34673Y88011D03*
X37848Y47498D03*
X35816Y65786D03*
X3683Y7239D03*
X35943Y76835D03*
X37467Y74643D03*
Y80137D03*
X40134Y18415D03*
X38862Y23368D03*
X40808Y40554D03*
X4064Y67945D03*
X4094Y70785D03*
X3861Y74643D03*
X39628Y74645D03*
X41277Y80645D03*
X40642Y88392D03*
X43815Y1651D03*
X4318Y18415D03*
X41658Y23368D03*
X42926Y30099D03*
X43436Y61341D03*
X42801Y70452D03*
X43309Y8382D03*
X45706Y1116D03*
X45595Y17129D03*
X45085Y3048D03*
X44704Y40132D03*
X46865Y57277D03*
X44579D03*
X48897Y25146D03*
X48262Y30353D03*
X49913Y49657D03*
X49024Y54864D03*
X49913Y61562D03*
X48135Y62705D03*
Y65245D03*
Y67785D03*
Y70325D03*
X52961Y49403D03*
X51818Y54991D03*
X51945Y6461D03*
X50675Y62705D03*
X55Y10391D03*
X53215Y14859D03*
X54866Y43482D03*
X55755Y60165D03*
X53215Y62705D03*
X54485Y6461D03*
X55755Y62705D03*
X57279Y13065D03*
X58803Y14605D03*
X56517Y2921D03*
X56771Y34925D03*
Y43482D03*
X57533Y54737D03*
X58295Y60165D03*
Y65245D03*
Y62705D03*
X56771Y66134D03*
X58295Y67785D03*
Y70325D03*
X60575Y23981D03*
X6147Y2667D03*
Y35735D03*
Y3891D03*
X62613Y0862D03*
X63375Y12446D03*
X64518Y14732D03*
X62486Y16637D03*
X6248Y23854D03*
X62232Y3175D03*
X63375Y3764D03*
Y45895D03*
X66804Y0735D03*
X65153Y17764D03*
X660574Y243834D03*
X6731Y55626D03*
X6528Y77597D03*
X66169Y82136D03*
X67439Y85598D03*
X6528Y88105D03*
X70614Y0481D03*
X68074Y09779D03*
X67947Y12319D03*
X68455Y15351D03*
X68582Y20177D03*
X69465Y34819D03*
X69725Y47005D03*
X68455Y49545D03*
X69261Y5872D03*
X72773Y0989D03*
X70868Y11557D03*
X72392Y12811D03*
X72519Y21701D03*
X7137Y34819D03*
Y39004D03*
X73154Y77597D03*
X729Y88105D03*
X76456Y0481D03*
X7613Y47776D03*
Y75731D03*
X75186Y79375D03*
X78986Y1369D03*
X77345Y27035D03*
X77218Y34163D03*
X78615Y44021D03*
X76964Y47704D03*
X78742Y48339D03*
X7798Y65245D03*
X7925Y67785D03*
X78742Y71976D03*
Y76294D03*
X76964Y75659D03*
X76785Y80485D03*
X7671Y88105D03*
X79504Y07731D03*
X79885Y10541D03*
X81409Y28829D03*
X8052Y381D03*
X79631Y4491D03*
Y4745D03*
X82171Y4491D03*
Y4745D03*
X80895Y4617D03*
X80595Y5253D03*
X79756Y5715D03*
X81536Y64864D03*
X80895Y74125D03*
X79631Y72865D03*
X82171D03*
X79631Y75405D03*
X82171D03*
X80595Y80485D03*
X80266Y8255D03*
X8052Y88105D03*
X85092Y0481D03*
X84838Y13192D03*
X83695Y25781D03*
X84965Y35052D03*
X82425Y41402D03*
X83187Y43561D03*
X8306Y48339D03*
X84405Y5253D03*
X83693Y55245D03*
X82679Y67404D03*
X82552Y6985D03*
X83314Y71628D03*
X8306Y76294D03*
X84405Y80485D03*
X84965Y88105D03*
X87632Y23749D03*
X86997Y25781D03*
X87214Y4246D03*
X88013Y45593D03*
X87214Y70415D03*
X89029Y09636D03*
X90553Y19288D03*
X89791Y31496D03*
X90172Y50244D03*
X9017Y48133D03*
X88521Y55959D03*
X90553Y66388D03*
X90045Y70325D03*
X88521Y73373D03*
X88775Y77945D03*
X88267Y82042D03*
X9068Y8366D03*
X88775Y88105D03*
X93855Y2513D03*
X92712Y61435D03*
X92077Y68293D03*
Y75311D03*
X92585Y88105D03*
X96776Y32258D03*
X97284Y41402D03*
X97411Y51181D03*
X97155Y635D03*
X9779Y6985D03*
X97155Y75565D03*
Y80645D03*
G54D21*
X58035Y0734D03*
Y1115D03*
G54D12*
X0305Y4191D03*
Y4699D03*
G54D13*
X11305Y6858D03*
X31625Y1651D03*
X5486Y15595D03*
X7264Y18135D03*
G54D22*
X60575Y0734D03*
Y1115D03*
G54D14*
X11305Y7112D03*
Y7366D03*
X31625Y1143D03*
Y1397D03*
X574Y15595D03*
X5994D03*
X7518Y18135D03*
X7772D03*
G54D23*
X67945Y6604D03*
Y6858D03*
Y7112D03*
Y7366D03*
Y762D03*
G54D24*
Y7874D03*
G54D15*
X38735Y4548D03*
X93305Y1108D03*
X94575Y3444D03*
Y466D03*
Y61395D03*
Y73555D03*
G54D25*
X9322Y2259D03*
Y2513D03*
Y2767D03*
G54D16*
X38735Y67945D03*
Y70485D03*
G54D26*
G01X67945Y6858D02*
X64643Y71882D01*
X42037D01*
X4094Y70785D01*
G01X45706Y1116D02*
Y13915D01*
X497546Y179636D01*
Y2131D01*
G01X69261Y5872D02*
Y64724D01*
X67945Y6604D01*
G54D17*
X4445Y2794D03*
X4699Y3048D03*
G54D18*
X43815Y4548D03*
X93305Y1616D03*
X94575Y3952D03*
Y5168D03*
Y66475D03*
Y78635D03*
G54D19*
X4699Y254D03*
M02*
