G04 ================== begin FILE IDENTIFICATION RECORD ==================*
G04 Layout Name:  MACHLORA_02_03Jul25_02.brd*
G04 Film Name:    loraTOP_MSK*
G04 File Format:  Gerber RS274X*
G04 File Origin:  Cadence Allegro -unreleased*
G04 Origin Date:  Wed Mar 25 15:54:42 2026*
G04 *
G04 Layer:  DRAWING FORMAT/FILM_ALL*
G04 Layer:  VIA CLASS/SOLDERMASK_TOP*
G04 Layer:  PIN/SOLDERMASK_TOP*
G04 Layer:  PACKAGE GEOMETRY/SOLDERMASK_TOP*
G04 Layer:  BOARD GEOMETRY/SOLDERMASK_TOP*
G04 *
G04 Offset:    (0.0000 0.0000)*
G04 Mirror:    No*
G04 Mode:      Positive*
G04 Rotation:  0*
G04 FullContactRelief:  No*
G04 UndefLineWidth:     0.1270*
G04 ================== end FILE IDENTIFICATION RECORD ====================*
%FSTAX25Y25*MOMM*%
%IR0*IPPOS*OFA0.00000B0.00000*MIA0B0*SFA1.00000B1.00000*%
%ADD13R,8.74X10.84*%
%ADD30R,.6208X2.1554*%
%ADD28R,1.397X.762*%
%ADD49R,1.7018X.8636*%
%AMMACRO29*
4,1,44,.416,-.47,
-.416,-.47,
-.432306,-.468593,
-.448119,-.464375,
-.46296,-.457475,
-.476377,-.448104,
-.487964,-.436544,
-.497367,-.423149,
-.5043,-.408324,
-.508555,-.39252,
-.51,-.376218,
-.51,-.376,
-.51,.376,
-.508593,.392306,
-.504375,.408119,
-.497475,.42296,
-.488104,.436377,
-.476544,.447964,
-.463149,.457367,
-.448324,.4643,
-.43252,.468555,
-.416218,.47,
-.416,.47,
.416,.47,
.432306,.468593,
.448119,.464375,
.46296,.457475,
.476377,.448104,
.487964,.436544,
.497367,.423149,
.5043,.408324,
.508555,.39252,
.51,.376218,
.51,.376,
.51,-.376,
.508593,-.392306,
.504375,-.408119,
.497475,-.42296,
.488104,-.436377,
.476544,-.447964,
.463149,-.457367,
.448324,-.4643,
.43252,-.468555,
.416218,-.47,
.416,-.47,
0.0*
%
%ADD29MACRO29*%
%ADD58R,.8636X1.7018*%
%AMMACRO23*
4,1,44,-.47,-.416,
-.47,.416,
-.468593,.432306,
-.464375,.448119,
-.457475,.46296,
-.448104,.476377,
-.436544,.487964,
-.423149,.497367,
-.408324,.5043,
-.39252,.508555,
-.376218,.51,
-.376,.51,
.376,.51,
.392306,.508593,
.408119,.504375,
.42296,.497475,
.436377,.488104,
.447964,.476544,
.457367,.463149,
.4643,.448324,
.468555,.43252,
.47,.416218,
.47,.416,
.47,-.416,
.468593,-.432306,
.464375,-.448119,
.457475,-.46296,
.448104,-.476377,
.436544,-.487964,
.423149,-.497367,
.408324,-.5043,
.39252,-.508555,
.376218,-.51,
.376,-.51,
-.376,-.51,
-.392306,-.508593,
-.408119,-.504375,
-.42296,-.497475,
-.436377,-.488104,
-.447964,-.476544,
-.457367,-.463149,
-.4643,-.448324,
-.468555,-.43252,
-.47,-.416218,
-.47,-.416,
0.0*
%
%ADD23MACRO23*%
%AMMACRO53*
4,1,44,-.89,.74,
.89,.74,
.922079,.737244,
.953192,.72896,
.982394,.715399,
1.008797,.696973,
1.031599,.674242,
1.050108,.647897,
1.063761,.618738,
1.072143,.587651,
1.075,.555581,
1.075,.555,
1.075,-.555,
1.072244,-.587079,
1.06396,-.618192,
1.050399,-.647394,
1.031973,-.673797,
1.009242,-.696599,
.982897,-.715108,
.953738,-.728761,
.922651,-.737143,
.890581,-.74,
.89,-.74,
-.89,-.74,
-.922079,-.737244,
-.953192,-.72896,
-.982394,-.715399,
-1.008797,-.696973,
-1.031599,-.674242,
-1.050108,-.647897,
-1.063761,-.618738,
-1.072143,-.587651,
-1.075,-.555581,
-1.075,-.555,
-1.075,.555,
-1.072244,.587079,
-1.06396,.618192,
-1.050399,.647394,
-1.031973,.673797,
-1.009242,.696599,
-.982897,.715108,
-.953738,.728761,
-.922651,.737143,
-.890581,.74,
-.89,.74,
0.0*
%
%ADD53MACRO53*%
%ADD47R,.7588X1.3176*%
%ADD33R,1.X1.*%
%AMMACRO38*
4,1,44,.762,-.49,
-.762,-.49,
-.779016,-.488513,
-.795515,-.484095,
-.810996,-.476878,
-.824988,-.467083,
-.837067,-.455007,
-.846866,-.441016,
-.854086,-.425537,
-.858509,-.409039,
-.86,-.392024,
-.86,-.392,
-.86,.392,
-.858513,.409016,
-.854095,.425515,
-.846878,.440996,
-.837083,.454988,
-.825007,.467067,
-.811016,.476866,
-.795537,.484086,
-.779039,.488509,
-.762024,.49,
-.762,.49,
.762,.49,
.779016,.488513,
.795515,.484095,
.810996,.476878,
.824988,.467083,
.837067,.455007,
.846866,.441016,
.854086,.425537,
.858509,.409039,
.86,.392024,
.86,.392,
.86,-.392,
.858513,-.409016,
.854095,-.425515,
.846878,-.440996,
.837083,-.454988,
.825007,-.467067,
.811016,-.476866,
.795537,-.484086,
.779039,-.488509,
.762024,-.49,
.762,-.49,
0.0*
%
%ADD38MACRO38*%
%ADD21R,1.X1.*%
%ADD50R,3.X1.3*%
%ADD39R,2.1X1.5*%
%ADD22R,2.2X4.2*%
%ADD19R,4.2X2.2*%
%ADD27R,1.62X1.2*%
%ADD55R,1.35X1.2*%
%ADD35R,1.17X1.12*%
%ADD32R,1.2X1.62*%
%ADD61R,1.7X1.5*%
%ADD34R,1.12X1.17*%
%ADD54R,1.5X1.7*%
%ADD43R,2.8X1.3*%
%ADD17R,1.8X1.7*%
%ADD24R,1.7X1.8*%
%ADD20R,3.54X1.14*%
%ADD57R,.8X.8*%
%ADD44R,1.1016X3.1016*%
%ADD41R,3.1016X1.1016*%
%ADD26C,2.15*%
%ADD36C,1.422*%
%ADD60R,3.45X3.45*%
%ADD42C,1.27*%
%ADD31C,1.208*%
%ADD12R,3.38X2.45*%
%ADD51C,1.57*%
%ADD48C,1.805*%
%ADD16C,1.418*%
%ADD37R,2.15X2.15*%
%ADD40R,1.422X1.422*%
%ADD62C,1.7272*%
%ADD52R,1.57X1.57*%
%ADD46R,1.805X1.805*%
%ADD15R,1.418X1.418*%
%ADD45R,3.7015X3.7015*%
%ADD11R,3.0956X5.6102*%
%AMMACRO18*
4,1,44,-.416,.47,
.416,.47,
.432306,.468593,
.448119,.464375,
.46296,.457475,
.476377,.448104,
.487964,.436544,
.497367,.423149,
.5043,.408324,
.508555,.39252,
.51,.376218,
.51,.376,
.51,-.376,
.508593,-.392306,
.504375,-.408119,
.497475,-.42296,
.488104,-.436377,
.476544,-.447964,
.463149,-.457367,
.448324,-.4643,
.43252,-.468555,
.416218,-.47,
.416,-.47,
-.416,-.47,
-.432306,-.468593,
-.448119,-.464375,
-.46296,-.457475,
-.476377,-.448104,
-.487964,-.436544,
-.497367,-.423149,
-.5043,-.408324,
-.508555,-.39252,
-.51,-.376218,
-.51,-.376,
-.51,.376,
-.508593,.392306,
-.504375,.408119,
-.497475,.42296,
-.488104,.436377,
-.476544,.447964,
-.463149,.457367,
-.448324,.4643,
-.43252,.468555,
-.416218,.47,
-.416,.47,
0.0*
%
%ADD18MACRO18*%
%AMMACRO14*
4,1,44,.47,.416,
.47,-.416,
.468593,-.432306,
.464375,-.448119,
.457475,-.46296,
.448104,-.476377,
.436544,-.487964,
.423149,-.497367,
.408324,-.5043,
.39252,-.508555,
.376218,-.51,
.376,-.51,
-.376,-.51,
-.392306,-.508593,
-.408119,-.504375,
-.42296,-.497475,
-.436377,-.488104,
-.447964,-.476544,
-.457367,-.463149,
-.4643,-.448324,
-.468555,-.43252,
-.47,-.416218,
-.47,-.416,
-.47,.416,
-.468593,.432306,
-.464375,.448119,
-.457475,.46296,
-.448104,.476377,
-.436544,.487964,
-.423149,.497367,
-.408324,.5043,
-.39252,.508555,
-.376218,.51,
-.376,.51,
.376,.51,
.392306,.508593,
.408119,.504375,
.42296,.497475,
.436377,.488104,
.447964,.476544,
.457367,.463149,
.4643,.448324,
.468555,.43252,
.47,.416218,
.47,.416,
0.0*
%
%ADD14MACRO14*%
%ADD10R,3.937X2.667*%
%AMMACRO59*
4,1,44,.16,.38,
.16,-.38,
.159402,-.386937,
.157609,-.393666,
.154675,-.39998,
.150689,-.40569,
.145772,-.41062,
.140073,-.414621,
.133766,-.417573,
.127043,-.419384,
.120107,-.42,
.12,-.42,
-.12,-.42,
-.126937,-.419402,
-.133666,-.417609,
-.13998,-.414675,
-.14569,-.410689,
-.15062,-.405772,
-.154621,-.400073,
-.157573,-.393766,
-.159384,-.387043,
-.16,-.380107,
-.16,-.38,
-.16,.38,
-.159402,.386937,
-.157609,.393666,
-.154675,.39998,
-.150689,.40569,
-.145772,.41062,
-.140073,.414621,
-.133766,.417573,
-.127043,.419384,
-.120107,.42,
-.12,.42,
.12,.42,
.126937,.419402,
.133666,.417609,
.13998,.414675,
.14569,.410689,
.15062,.405772,
.154621,.400073,
.157573,.393766,
.159384,.387043,
.16,.380107,
.16,.38,
0.0*
%
%ADD59MACRO59*%
%AMMACRO56*
4,1,44,.38,-.16,
-.38,-.16,
-.386937,-.159402,
-.393666,-.157609,
-.39998,-.154675,
-.40569,-.150689,
-.41062,-.145772,
-.414621,-.140073,
-.417573,-.133766,
-.419384,-.127043,
-.42,-.120107,
-.42,-.12,
-.42,.12,
-.419402,.126937,
-.417609,.133666,
-.414675,.13998,
-.410689,.14569,
-.405772,.15062,
-.400073,.154621,
-.393766,.157573,
-.387043,.159384,
-.380107,.16,
-.38,.16,
.38,.16,
.386937,.159402,
.393666,.157609,
.39998,.154675,
.40569,.150689,
.41062,.145772,
.414621,.140073,
.417573,.133766,
.419384,.127043,
.42,.120107,
.42,.12,
.42,-.12,
.419402,-.126937,
.417609,-.133666,
.414675,-.13998,
.410689,-.14569,
.405772,-.15062,
.400073,-.154621,
.393766,-.157573,
.387043,-.159384,
.380107,-.16,
.38,-.16,
0.0*
%
%ADD56MACRO56*%
%AMMACRO25*
4,1,44,-.762,.49,
.762,.49,
.779016,.488513,
.795515,.484095,
.810996,.476878,
.824988,.467083,
.837067,.455007,
.846866,.441016,
.854086,.425537,
.858509,.409039,
.86,.392024,
.86,.392,
.86,-.392,
.858513,-.409016,
.854095,-.425515,
.846878,-.440996,
.837083,-.454988,
.825007,-.467067,
.811016,-.476866,
.795537,-.484086,
.779039,-.488509,
.762024,-.49,
.762,-.49,
-.762,-.49,
-.779016,-.488513,
-.795515,-.484095,
-.810996,-.476878,
-.824988,-.467083,
-.837067,-.455007,
-.846866,-.441016,
-.854086,-.425537,
-.858509,-.409039,
-.86,-.392024,
-.86,-.392,
-.86,.392,
-.858513,.409016,
-.854095,.425515,
-.846878,.440996,
-.837083,.454988,
-.825007,.467067,
-.811016,.476866,
-.795537,.484086,
-.779039,.488509,
-.762024,.49,
-.762,.49,
0.0*
%
%ADD25MACRO25*%
%LPD*%
G75*
G54D10*
X0305Y4191D03*
Y4699D03*
G54D11*
X12067Y1905D03*
X21973D03*
X20957Y70485D03*
X30863D03*
G54D20*
X1912Y3005D03*
Y2835D03*
Y3175D03*
Y3515D03*
Y3345D03*
X2381Y54385D03*
Y56085D03*
Y57785D03*
Y59485D03*
Y61185D03*
G54D12*
X1194Y302D03*
Y3711D03*
X3099Y52425D03*
Y59335D03*
G54D21*
X1777Y37465D03*
X1627D03*
X1777Y70485D03*
X1627D03*
X2516Y1905D03*
X2666D03*
X2516Y5207D03*
X2666D03*
G54D30*
X40808Y33083D03*
Y388338D03*
X42758Y33083D03*
X42108D03*
X41458D03*
Y388338D03*
X42108D03*
X42758D03*
G54D40*
X4699Y254D03*
G54D31*
X38735Y67945D03*
Y70485D03*
G54D22*
X17655Y409D03*
Y48D03*
Y79D03*
Y861D03*
X2718Y409D03*
Y48D03*
G54D13*
X1321Y57785D03*
X2972Y3175D03*
G54D14*
X1146Y6477D03*
X0988D03*
G54D41*
X45725Y59065D03*
Y60335D03*
Y61605D03*
Y654148D03*
Y628748D03*
Y64145D03*
Y66685D03*
Y679548D03*
Y692248D03*
Y70495D03*
Y71765D03*
Y730348D03*
Y74305D03*
Y755748D03*
X637249Y59065D03*
Y61605D03*
Y60335D03*
Y654148D03*
Y64145D03*
Y628748D03*
Y679548D03*
Y66685D03*
Y70495D03*
Y692248D03*
Y74305D03*
Y730348D03*
Y71765D03*
Y755748D03*
G54D32*
X3907Y7239D03*
X4094D03*
X76785Y5125D03*
Y79205D03*
X79325Y41725D03*
X78655Y5125D03*
X79325Y6968D03*
X78655Y79205D03*
X81195Y41725D03*
X80595Y5125D03*
X82465D03*
X81195Y6968D03*
X80595Y79205D03*
X82465D03*
X84405Y5125D03*
Y79205D03*
X86275Y5125D03*
Y79205D03*
G54D50*
X6627Y33645D03*
G54D23*
X25755Y06985D03*
X27335D03*
X3147Y22225D03*
X3305D03*
G54D15*
X11305Y6858D03*
X31625Y1651D03*
X5486Y15595D03*
X7264Y18135D03*
G54D51*
X67945Y6604D03*
Y6858D03*
Y7112D03*
Y7366D03*
Y762D03*
G54D42*
X497546Y2131D03*
X4851Y2004D03*
Y2258D03*
G54D60*
X80895Y4617D03*
Y74125D03*
G54D24*
X29825Y06985D03*
X33425D03*
X74015Y302D03*
X77615D03*
G54D33*
X4089Y74645D03*
Y76145D03*
X42795Y7147D03*
Y7297D03*
Y74645D03*
Y76145D03*
X69465Y36085D03*
Y37585D03*
X7137Y36085D03*
Y37585D03*
G54D25*
X36705Y05265D03*
Y08185D03*
X41529Y25601D03*
Y28521D03*
X44704Y32713D03*
Y35633D03*
X50034Y13764D03*
Y16684D03*
X5232Y2113D03*
Y2405D03*
X84705Y15415D03*
Y18335D03*
G54D52*
X67945Y7874D03*
G54D16*
X11305Y7112D03*
Y7366D03*
X31625Y1143D03*
Y1397D03*
X574Y15595D03*
X5994D03*
X7518Y18135D03*
X7772D03*
G54D43*
X5097Y35645D03*
Y33645D03*
Y37645D03*
Y41645D03*
Y39645D03*
Y43645D03*
Y45645D03*
Y47645D03*
X6637Y35645D03*
Y37645D03*
Y39645D03*
Y41645D03*
Y43645D03*
Y45645D03*
Y47645D03*
G54D34*
X44465Y1116D03*
X42915D03*
X49037Y05334D03*
X47487D03*
X5345Y0734D03*
X55D03*
X5345Y09245D03*
X55D03*
X64245Y2131D03*
X67934Y0735D03*
X65775Y1116D03*
X67325D03*
X65775Y15605D03*
X67325D03*
X65775Y137D03*
X67325D03*
X65795Y2131D03*
X69484Y0735D03*
X7631Y1369D03*
X7786D03*
X82025Y10515D03*
X83575D03*
G54D61*
X85975Y44585D03*
Y46485D03*
Y7254D03*
Y7444D03*
G54D62*
X9322Y2259D03*
Y2513D03*
Y2767D03*
G54D26*
X38735Y4548D03*
X93305Y1108D03*
X94575Y3444D03*
Y466D03*
Y61395D03*
Y73555D03*
G54D44*
X502797Y575649D03*
X4901D03*
X528197D03*
X5155D03*
X5536D03*
X540897D03*
X579D03*
X5663D03*
X604397D03*
X5917D03*
G54D17*
X11305Y7821D03*
Y8181D03*
X38862Y25251D03*
Y28851D03*
X508Y0709D03*
Y1069D03*
G54D35*
X43565Y19825D03*
Y21375D03*
X45335Y2145D03*
Y199D03*
X5486Y23355D03*
Y21805D03*
X60575Y2117D03*
Y2272D03*
X6248Y2117D03*
Y2272D03*
X7645Y11925D03*
Y10375D03*
X78355D03*
Y11925D03*
X82165Y1228D03*
Y1383D03*
Y15455D03*
Y17005D03*
G54D53*
X7344Y24485D03*
Y27025D03*
X82Y24485D03*
Y27025D03*
G54D18*
X11305Y8588D03*
Y843D03*
X44704Y3889D03*
Y3731D03*
G54D45*
X536198Y683848D03*
G54D36*
X4445Y2794D03*
X4699Y3048D03*
G54D54*
X7613Y4109D03*
X7423D03*
Y4617D03*
X7613D03*
Y69045D03*
X7423D03*
Y74125D03*
X7613D03*
G54D27*
X36195Y6574D03*
Y6761D03*
X6731Y5685D03*
Y5872D03*
X88515Y4114D03*
Y3977D03*
X85975Y3972D03*
Y4109D03*
Y4246D03*
X88515Y48125D03*
Y46755D03*
Y67725D03*
X85975Y67675D03*
X88515Y69095D03*
X85975Y70415D03*
Y69045D03*
X88515Y7608D03*
Y7471D03*
G54D46*
X58035Y0734D03*
Y1115D03*
G54D37*
X43815Y4548D03*
X93305Y1616D03*
X94575Y3952D03*
Y5168D03*
Y66475D03*
Y78635D03*
G54D55*
X76355Y4363D03*
X74005D03*
X76355Y71585D03*
X74005D03*
G54D19*
X14105Y06985D03*
X21205D03*
G54D28*
X393085Y05445D03*
Y06715D03*
Y07985D03*
Y09255D03*
X442615Y05445D03*
Y06715D03*
Y09255D03*
Y07985D03*
X695285Y09245D03*
Y10515D03*
Y11785D03*
Y13055D03*
X744815Y09245D03*
Y10515D03*
Y11785D03*
Y13055D03*
G54D56*
X7846Y4747D03*
Y4682D03*
Y4617D03*
Y4552D03*
Y4487D03*
Y73475D03*
Y72825D03*
Y75425D03*
Y74775D03*
Y74125D03*
X8333Y4747D03*
Y4487D03*
Y4552D03*
Y4617D03*
Y4682D03*
Y72825D03*
Y73475D03*
Y75425D03*
Y74125D03*
Y74775D03*
G54D38*
X475Y0715D03*
Y1007D03*
G54D47*
X570952Y214624D03*
X589748D03*
X58035Y236976D03*
G54D29*
X38862Y31341D03*
Y32921D03*
G54D48*
X60575Y0734D03*
Y1115D03*
G54D57*
X78615Y527D03*
Y549D03*
Y80655D03*
Y82855D03*
X82425Y527D03*
Y549D03*
Y80655D03*
Y82855D03*
X86235Y527D03*
Y549D03*
Y80655D03*
Y82855D03*
G54D39*
X47494Y13414D03*
Y17014D03*
G54D58*
X801584Y302D03*
X829016D03*
G54D49*
X6756Y243834D03*
Y271266D03*
X701Y243834D03*
Y271266D03*
X8534Y243834D03*
Y271266D03*
G54D59*
X79595Y43735D03*
X80245D03*
X80895D03*
X81545D03*
X82195D03*
Y48605D03*
X81545D03*
X80895D03*
X80245D03*
X79595D03*
Y7169D03*
X80245D03*
X80895D03*
X81545D03*
X82195D03*
Y7656D03*
X81545D03*
X80895D03*
X80245D03*
X79595D03*
M02*
