G04 ================== begin FILE IDENTIFICATION RECORD ==================*
G04 Layout Name:  MACHLORA_02_03Jul25_02.brd*
G04 Film Name:    loraTOP*
G04 File Format:  Gerber RS274X*
G04 File Origin:  Cadence Allegro -unreleased*
G04 Origin Date:  Wed Mar 25 15:54:42 2026*
G04 *
G04 Layer:  DRAWING FORMAT/FILM_ALL*
G04 Layer:  ETCH/TOP*
G04 Layer:  PIN/TOP*
G04 Layer:  VIA CLASS/TOP*
G04 *
G04 Offset:    (0.0000 0.0000)*
G04 Mirror:    No*
G04 Mode:      Positive*
G04 Rotation:  0*
G04 FullContactRelief:  Yes*
G04 UndefLineWidth:     0.1270*
G04 ================== end FILE IDENTIFICATION RECORD ====================*
%FSTAX25Y25*MOMM*%
%IR0*IPPOS*OFA0.00000B0.00000*MIA0B0*SFA1.00000B1.00000*%
%ADD47R,3.5999X3.5999*%
%ADD15R,8.6X10.7*%
%ADD30R,1.27X.635*%
%ADD32R,.4208X1.9554*%
%ADD51R,1.7018X.8636*%
%AMMACRO31*
4,1,44,.416,-.47,
-.416,-.47,
-.432306,-.468593,
-.448119,-.464375,
-.46296,-.457475,
-.476377,-.448104,
-.487964,-.436544,
-.497367,-.423149,
-.5043,-.408324,
-.508555,-.39252,
-.51,-.376218,
-.51,-.376,
-.51,.376,
-.508593,.392306,
-.504375,.408119,
-.497475,.42296,
-.488104,.436377,
-.476544,.447964,
-.463149,.457367,
-.448324,.4643,
-.43252,.468555,
-.416218,.47,
-.416,.47,
.416,.47,
.432306,.468593,
.448119,.464375,
.46296,.457475,
.476377,.448104,
.487964,.436544,
.497367,.423149,
.5043,.408324,
.508555,.39252,
.51,.376218,
.51,.376,
.51,-.376,
.508593,-.392306,
.504375,-.408119,
.497475,-.42296,
.488104,-.436377,
.476544,-.447964,
.463149,-.457367,
.448324,-.4643,
.43252,-.468555,
.416218,-.47,
.416,-.47,
0.0*
%
%ADD31MACRO31*%
%ADD11C,.5588*%
%ADD60R,.8636X1.7018*%
%AMMACRO25*
4,1,44,-.47,-.416,
-.47,.416,
-.468593,.432306,
-.464375,.448119,
-.457475,.46296,
-.448104,.476377,
-.436544,.487964,
-.423149,.497367,
-.408324,.5043,
-.39252,.508555,
-.376218,.51,
-.376,.51,
.376,.51,
.392306,.508593,
.408119,.504375,
.42296,.497475,
.436377,.488104,
.447964,.476544,
.457367,.463149,
.4643,.448324,
.468555,.43252,
.47,.416218,
.47,.416,
.47,-.416,
.468593,-.432306,
.464375,-.448119,
.457475,-.46296,
.448104,-.476377,
.436544,-.487964,
.423149,-.497367,
.408324,-.5043,
.39252,-.508555,
.376218,-.51,
.376,-.51,
-.376,-.51,
-.392306,-.508593,
-.408119,-.504375,
-.42296,-.497475,
-.436377,-.488104,
-.447964,-.476544,
-.457367,-.463149,
-.4643,-.448324,
-.468555,-.43252,
-.47,-.416218,
-.47,-.416,
0.0*
%
%ADD25MACRO25*%
%ADD49R,.5588X1.1176*%
%AMMACRO55*
4,1,44,-.89,.74,
.89,.74,
.922079,.737244,
.953192,.72896,
.982394,.715399,
1.008797,.696973,
1.031599,.674242,
1.050108,.647897,
1.063761,.618738,
1.072143,.587651,
1.075,.555581,
1.075,.555,
1.075,-.555,
1.072244,-.587079,
1.06396,-.618192,
1.050399,-.647394,
1.031973,-.673797,
1.009242,-.696599,
.982897,-.715108,
.953738,-.728761,
.922651,-.737143,
.890581,-.74,
.89,-.74,
-.89,-.74,
-.922079,-.737244,
-.953192,-.72896,
-.982394,-.715399,
-1.008797,-.696973,
-1.031599,-.674242,
-1.050108,-.647897,
-1.063761,-.618738,
-1.072143,-.587651,
-1.075,-.555581,
-1.075,-.555,
-1.075,.555,
-1.072244,.587079,
-1.06396,.618192,
-1.050399,.647394,
-1.031973,.673797,
-1.009242,.696599,
-.982897,.715108,
-.953738,.728761,
-.922651,.737143,
-.890581,.74,
-.89,.74,
0.0*
%
%ADD55MACRO55*%
%AMMACRO40*
4,1,44,.762,-.49,
-.762,-.49,
-.779016,-.488513,
-.795515,-.484095,
-.810996,-.476878,
-.824988,-.467083,
-.837067,-.455007,
-.846866,-.441016,
-.854086,-.425537,
-.858509,-.409039,
-.86,-.392024,
-.86,-.392,
-.86,.392,
-.858513,.409016,
-.854095,.425515,
-.846878,.440996,
-.837083,.454988,
-.825007,.467067,
-.811016,.476866,
-.795537,.484086,
-.779039,.488509,
-.762024,.49,
-.762,.49,
.762,.49,
.779016,.488513,
.795515,.484095,
.810996,.476878,
.824988,.467083,
.837067,.455007,
.846866,.441016,
.854086,.425537,
.858509,.409039,
.86,.392024,
.86,.392,
.86,-.392,
.858513,-.409016,
.854095,-.425515,
.846878,-.440996,
.837083,-.454988,
.825007,-.467067,
.811016,-.476866,
.795537,-.484086,
.779039,-.488509,
.762024,-.49,
.762,-.49,
0.0*
%
%ADD40MACRO40*%
%ADD46R,1.X3.*%
%ADD43R,3.X1.*%
%ADD24R,2.X4.*%
%ADD21R,4.X2.*%
%ADD29R,1.42X1.*%
%ADD57R,1.15X1.*%
%ADD41R,2.1X1.5*%
%ADD34R,1.X1.42*%
%ADD22R,3.4X1.*%
%ADD63R,1.5X1.3*%
%ADD56R,1.3X1.5*%
%ADD45R,2.6X1.1*%
%ADD52R,2.8X1.1*%
%ADD19R,1.6X1.5*%
%ADD26R,1.5X1.6*%
%ADD59R,.6X.6*%
%ADD62R,3.25X3.25*%
%ADD38C,1.222*%
%ADD35R,.8X.8*%
%ADD14R,3.18X2.25*%
%ADD44C,1.016*%
%ADD23R,.8X.8*%
%ADD33C,1.008*%
%ADD12R,3.81X2.54*%
%ADD53C,1.37*%
%ADD50C,1.605*%
%ADD18C,1.218*%
%ADD42R,1.222X1.222*%
%ADD28C,1.95*%
%ADD10C,3.175*%
%ADD54R,1.37X1.37*%
%ADD37R,.97X.92*%
%ADD64C,1.7272*%
%ADD48R,1.605X1.605*%
%ADD36R,.92X.97*%
%ADD17R,1.218X1.218*%
%ADD39R,1.95X1.95*%
%AMMACRO20*
4,1,44,-.416,.47,
.416,.47,
.432306,.468593,
.448119,.464375,
.46296,.457475,
.476377,.448104,
.487964,.436544,
.497367,.423149,
.5043,.408324,
.508555,.39252,
.51,.376218,
.51,.376,
.51,-.376,
.508593,-.392306,
.504375,-.408119,
.497475,-.42296,
.488104,-.436377,
.476544,-.447964,
.463149,-.457367,
.448324,-.4643,
.43252,-.468555,
.416218,-.47,
.416,-.47,
-.416,-.47,
-.432306,-.468593,
-.448119,-.464375,
-.46296,-.457475,
-.476377,-.448104,
-.487964,-.436544,
-.497367,-.423149,
-.5043,-.408324,
-.508555,-.39252,
-.51,-.376218,
-.51,-.376,
-.51,.376,
-.508593,.392306,
-.504375,.408119,
-.497475,.42296,
-.488104,.436377,
-.476544,.447964,
-.463149,.457367,
-.448324,.4643,
-.43252,.468555,
-.416218,.47,
-.416,.47,
0.0*
%
%ADD20MACRO20*%
%AMMACRO16*
4,1,44,.47,.416,
.47,-.416,
.468593,-.432306,
.464375,-.448119,
.457475,-.46296,
.448104,-.476377,
.436544,-.487964,
.423149,-.497367,
.408324,-.5043,
.39252,-.508555,
.376218,-.51,
.376,-.51,
-.376,-.51,
-.392306,-.508593,
-.408119,-.504375,
-.42296,-.497475,
-.436377,-.488104,
-.447964,-.476544,
-.457367,-.463149,
-.4643,-.448324,
-.468555,-.43252,
-.47,-.416218,
-.47,-.416,
-.47,.416,
-.468593,.432306,
-.464375,.448119,
-.457475,.46296,
-.448104,.476377,
-.436544,.487964,
-.423149,.497367,
-.408324,.5043,
-.39252,.508555,
-.376218,.51,
-.376,.51,
.376,.51,
.392306,.508593,
.408119,.504375,
.42296,.497475,
.436377,.488104,
.447964,.476544,
.457367,.463149,
.4643,.448324,
.468555,.43252,
.47,.416218,
.47,.416,
0.0*
%
%ADD16MACRO16*%
%ADD13R,2.8956X5.4102*%
%AMMACRO61*
4,1,44,.16,.38,
.16,-.38,
.159402,-.386937,
.157609,-.393666,
.154675,-.39998,
.150689,-.40569,
.145772,-.41062,
.140073,-.414621,
.133766,-.417573,
.127043,-.419384,
.120107,-.42,
.12,-.42,
-.12,-.42,
-.126937,-.419402,
-.133666,-.417609,
-.13998,-.414675,
-.14569,-.410689,
-.15062,-.405772,
-.154621,-.400073,
-.157573,-.393766,
-.159384,-.387043,
-.16,-.380107,
-.16,-.38,
-.16,.38,
-.159402,.386937,
-.157609,.393666,
-.154675,.39998,
-.150689,.40569,
-.145772,.41062,
-.140073,.414621,
-.133766,.417573,
-.127043,.419384,
-.120107,.42,
-.12,.42,
.12,.42,
.126937,.419402,
.133666,.417609,
.13998,.414675,
.14569,.410689,
.15062,.405772,
.154621,.400073,
.157573,.393766,
.159384,.387043,
.16,.380107,
.16,.38,
0.0*
%
%ADD61MACRO61*%
%AMMACRO58*
4,1,44,.38,-.16,
-.38,-.16,
-.386937,-.159402,
-.393666,-.157609,
-.39998,-.154675,
-.40569,-.150689,
-.41062,-.145772,
-.414621,-.140073,
-.417573,-.133766,
-.419384,-.127043,
-.42,-.120107,
-.42,-.12,
-.42,.12,
-.419402,.126937,
-.417609,.133666,
-.414675,.13998,
-.410689,.14569,
-.405772,.15062,
-.400073,.154621,
-.393766,.157573,
-.387043,.159384,
-.380107,.16,
-.38,.16,
.38,.16,
.386937,.159402,
.393666,.157609,
.39998,.154675,
.40569,.150689,
.41062,.145772,
.414621,.140073,
.417573,.133766,
.419384,.127043,
.42,.120107,
.42,.12,
.42,-.12,
.419402,-.126937,
.417609,-.133666,
.414675,-.13998,
.410689,-.14569,
.405772,-.15062,
.400073,-.154621,
.393766,-.157573,
.387043,-.159384,
.380107,-.16,
.38,-.16,
0.0*
%
%ADD58MACRO58*%
%AMMACRO27*
4,1,44,-.762,.49,
.762,.49,
.779016,.488513,
.795515,.484095,
.810996,.476878,
.824988,.467083,
.837067,.455007,
.846866,.441016,
.854086,.425537,
.858509,.409039,
.86,.392024,
.86,.392,
.86,-.392,
.858513,-.409016,
.854095,-.425515,
.846878,-.440996,
.837083,-.454988,
.825007,-.467067,
.811016,-.476866,
.795537,-.484086,
.779039,-.488509,
.762024,-.49,
.762,-.49,
-.762,-.49,
-.779016,-.488513,
-.795515,-.484095,
-.810996,-.476878,
-.824988,-.467083,
-.837067,-.455007,
-.846866,-.441016,
-.854086,-.425537,
-.858509,-.409039,
-.86,-.392024,
-.86,-.392,
-.86,.392,
-.858513,.409016,
-.854095,.425515,
-.846878,.440996,
-.837083,.454988,
-.825007,.467067,
-.811016,.476866,
-.795537,.484086,
-.779039,.488509,
-.762024,.49,
-.762,.49,
0.0*
%
%ADD27MACRO27*%
%ADD65C,.3*%
%ADD66C,.4*%
%ADD67C,.5*%
%ADD68C,.8*%
%ADD69C,.2029*%
%ADD70C,.508*%
%ADD72C,4.2904*%
%ADD71C,4.3184*%
%ADD73R,1.8224X1.8224*%
%ADD74R,1.9704X1.9704*%
G75*
%LPD*%
G75*
G36*
G01X40767Y277308D02*
X42291D01*
G03X426258Y279135I-0000003J0039817D01*
G01X426627Y279708D01*
X435322D01*
X435426Y278572D01*
G03X4445Y270288I009074J0008277D01*
G03Y288512I0J009112D01*
G01X444498D01*
G03X443811Y288486I0000009J-009112D01*
G01X443239Y288442D01*
X442581Y289101D01*
G03X438692Y290712I-0038901J-0038914D01*
G01X426627D01*
X426258Y291285D01*
G03X42291Y293112I-0033483J-0021547D01*
G01X420645D01*
X420314Y293853D01*
G03X420213Y294066I-0050207J-0022502D01*
G01X420082Y294329D01*
Y318051D01*
X423184D01*
G03X426186Y321053I0J003002D01*
G01Y328769D01*
X426259Y328973D01*
G03X426582Y33083I-0051789J0018574D01*
G01Y348951D01*
X427729Y350098D01*
X436178D01*
G03X43942Y348428I003242J0023118D01*
G01X45466D01*
G03X458642Y35241I0000001J0039819D01*
G01Y36025D01*
G03X454672Y364232I-0039819J0000001D01*
G01X453425Y365482D01*
X453839Y366411D01*
G03X454422Y367068I-0026379J0029279D01*
G01X454796Y367598D01*
X455652D01*
G03X459541Y369209I-0000011J0055024D01*
G01X46648Y376149D01*
G02X470748Y374382I001768J-0017675D01*
G01Y369148D01*
G03X472359Y365259I0055024J0000011D01*
G01X485059Y352559D01*
G03X488948Y350948I0038901J0038914D01*
G01X493559D01*
X493831Y350066D01*
G03X4967Y347948I002869J0008841D01*
G01X5227D01*
G03X525702Y35095I0J003002D01*
G01Y36195D01*
G03X5227Y364952I-003002J0D01*
G01X4967D01*
G03X493831Y362834I0J-0030021D01*
G01X493559Y361952D01*
X491229D01*
X481752Y371429D01*
Y393602D01*
G02X48602Y395369I0025J-0000005D01*
G01X488829Y392559D01*
G03X492652Y390948I0038906J003891D01*
G01X493831Y390066D01*
G03X4967Y387948I002869J0008841D01*
G01X5227D01*
G03X525702Y39095I0J003002D01*
G01Y40195D01*
G03X5227Y404952I-003002J0D01*
G01X4967D01*
G03X495995Y404868I0000002J-003002D01*
G01X495851Y404833D01*
X494452D01*
Y408067D01*
X495851D01*
X495995Y408032D01*
G03X4967Y407948I0007052J002918D01*
G01X5227D01*
G03X525569Y410066I0J0030021D01*
G01X525841Y410948D01*
X531892D01*
G03X535781Y412559I-0000011J0055024D01*
G01X543661Y420439D01*
G03X545272Y424328I-0038914J0038901D01*
G01Y501362D01*
G02X54954Y503129I0025J-0000005D01*
G01X553298Y499371D01*
Y409189D01*
X528269Y38416D01*
G02X524774Y38412I-001768J0017677D01*
G03X5227Y384952I-002074J-002169D01*
G01X4967D01*
G03X493698Y38195I0J-003002D01*
G01Y37095D01*
G03X4967Y367948I003002J0D01*
G01X5227D01*
G03X525569Y370066I0J0030021D01*
G01X525841Y370948D01*
X528342D01*
G03X532231Y372559I-0000011J0055024D01*
G01X562691Y403019D01*
G03X564302Y406908I-0038914J0038901D01*
G01Y450582D01*
G02X56857Y452349I0025J-0000005D01*
G01X628359Y392559D01*
G03X632248Y390948I0038901J0038914D01*
G01X647559D01*
X647831Y390066D01*
G03X6507Y387948I002869J0008841D01*
G01X6767D01*
G03X679702Y39095I0J003002D01*
G01Y40195D01*
G03X6767Y404952I-003002J0D01*
G01X6507D01*
G03X647831Y402834I0J-0030021D01*
G01X647559Y401952D01*
X634529D01*
X577002Y459479D01*
Y507732D01*
G02X58127Y509499I0025J-0000005D01*
G01X585048Y505721D01*
Y463718D01*
G03X586659Y459829I0055024J0000011D01*
G01X633929Y412559D01*
G03X637818Y410948I0038901J0038914D01*
G01X647559D01*
X647831Y410066D01*
G03X6507Y407948I002869J0008841D01*
G01X6767D01*
G03X679702Y41095I0J003002D01*
G01Y42195D01*
G03X6767Y424952I-003002J0D01*
G01X6507D01*
G03X647831Y422834I0J-0030021D01*
G01X647559Y421952D01*
X640099D01*
X596052Y465999D01*
Y508002D01*
G03X594441Y511891I-0055024J-0000011D01*
G01X562691Y543641D01*
G03X558802Y545252I-0038901J-0038914D01*
G01X510279D01*
X508299Y547232D01*
Y557647D01*
X5205D01*
G03X521848Y557967I-0000006J0030019D01*
G03X523196Y557647I0013487J0026821D01*
G01X545898D01*
G03X547248Y557968I-0000007J0030021D01*
G03X548597Y557647I0013507J0026813D01*
G01X586198D01*
Y544948D01*
G03X587809Y541059I0055024J0000011D01*
G01X599359Y529509D01*
G03X603248Y527898I0038901J0038914D01*
G01X683521D01*
X712048Y499371D01*
Y406398D01*
G03X713659Y402509I0055024J0000011D01*
G01X71532Y400849D01*
G02X713593Y396581I-0017672J-0017683D01*
G03X707158Y39004I0001069J-006541D01*
G01Y382392D01*
X700275D01*
X700008Y382527D01*
G03X69865Y382852I-0013585J-0026769D01*
G01X69065D01*
G03X689581Y382655I0000006J-0030019D01*
G03X68751Y382992I-0020726J-0062047D01*
G01X679597D01*
X679229Y383568D01*
G03X6767Y384952I-002529J-0016186D01*
G01X6507D01*
G03X647698Y38195I0J-003002D01*
G01Y37095D01*
G03X6507Y367948I003002J0D01*
G01X6767D01*
G03X679229Y369332I0J0030026D01*
G01X679597Y369908D01*
X685362D01*
X685593Y369812D01*
G03X68811Y369308I002518J0060378D01*
G01X689025D01*
X689292Y369173D01*
G03X69065Y368848I0013585J0026769D01*
G01X69865D01*
G03X700008Y369173I-0000005J0030019D01*
G01X700275Y369308D01*
X708075D01*
X708342Y369173D01*
G03X7097Y368848I0013585J0026769D01*
G01X7177D01*
G03X720702Y37185I0J003002D01*
G01Y37985D01*
G03X720377Y381208I-0030019J-0000005D01*
G01X720242Y381475D01*
Y389892D01*
G02X72451Y391659I0025J-0000005D01*
G01X731098Y385071D01*
Y332479D01*
X71527Y316651D01*
X698497D01*
G03X694608Y31504I0000011J-0055024D01*
G01X671709Y292141D01*
G03X670098Y288252I0038914J-0038901D01*
G01Y278586D01*
X667091D01*
G03X664089Y275584I0J-003002D01*
G01Y266948D01*
G03X666207Y264079I0030021J0D01*
G01X667089Y263807D01*
Y251293D01*
X666207Y251021D01*
G03X664918Y250223I0008845J-0028687D01*
G01X664549Y249836D01*
X660574D01*
G03Y237832I0J-006002D01*
G01X664549D01*
X664918Y237445D01*
G03X667091Y236514I002173J0020704D01*
G01X684109D01*
G03X686396Y237571I0J0030027D01*
G02X690204I001904J-0016197D01*
G03X692491Y236514I002287J0019457D01*
G01X70951D01*
G03X71124Y237063I-0000006J0030021D01*
G01X711564Y237292D01*
X712049D01*
G03X715279Y238145I0J0065419D01*
G01X715566Y238308D01*
X720674D01*
X720987Y237517D01*
G03X725492Y234448I0045104J00178D01*
G01X743308D01*
G03X748152Y239297I-0000051J0048491D01*
G01Y250403D01*
G03X746037Y254408I-0048492J0000002D01*
G01X745492Y25478D01*
Y262892D01*
X723902D01*
Y276862D01*
X712298D01*
X711923Y277369D01*
G03X709509Y278586I-002414J-0017857D01*
G01X692491D01*
G03X69003Y277302I0000006J-0030017D01*
G01X689656Y276768D01*
X686944D01*
X68657Y277302D01*
G03X684109Y278586I-0024616J-0017177D01*
G01X681102D01*
Y285971D01*
X700778Y305647D01*
X717551D01*
G03X72144Y307258I-0000011J0055024D01*
G01X740491Y326309D01*
G03X742102Y330198I-0038914J0038901D01*
G01Y387352D01*
G03X740491Y391241I-0055024J-0000011D01*
G01X723052Y408679D01*
Y501652D01*
G03X721441Y505541I-0055024J-0000011D01*
G01X690651Y53633D01*
G02X692418Y540598I0017675J001768D01*
G01X702571D01*
X752308Y49086D01*
G03X756197Y489249I0038901J0038914D01*
G01X796948D01*
Y486048D01*
G03X797681Y483305I0055023J0000009D01*
G01X797848Y483016D01*
Y482248D01*
G03X801248Y478848I0034015J0000015D01*
G01X803652D01*
G03X8057Y479535I-0000018J0034014D01*
G03X807748Y478848I0020498J0027144D01*
G01X810152D01*
G03X8122Y479535I-0000018J0034014D01*
G03X814248Y478848I0020498J0027144D01*
G01X816652D01*
G03X8187Y479535I-0000018J0034014D01*
G03X820748Y478848I0020498J0027144D01*
G01X823152D01*
G03X826552Y482248I-0000015J0034015D01*
G01Y483016D01*
X826719Y483305D01*
G03X82745Y485887I-0047689J0027446D01*
G01X827464Y486383D01*
X830879Y489798D01*
X857272D01*
G03X861161Y491409I-0000011J0055024D01*
G01X866641Y496889D01*
G03X868252Y500778I-0038914J0038901D01*
G01Y502332D01*
X868987Y502665D01*
G03X870752Y5054I-0012365J002735D01*
G01Y5196D01*
G03X869058Y522302I-0030019J0D01*
G01X868352Y522644D01*
Y53D01*
G03X86535Y533002I-003002J0D01*
G01X85935D01*
G03X856348Y53I0J-003002D01*
G01Y522322D01*
X855878Y521947D01*
G03X854748Y5196I0018723J-002347D01*
G01Y5054D01*
G03X855653Y503252I0030016J0D01*
G01X856547Y502358D01*
X854991Y500802D01*
X834736D01*
G02X832425Y504255I0000002J0025D01*
G03X832652Y5054I-0027742J001145D01*
G01Y5196D01*
G03X830958Y522302I-0030019J0D01*
G01X830252Y522644D01*
Y53D01*
G03X82725Y533002I-003002J0D01*
G01X82125D01*
G03X818248Y53I0J-003002D01*
G01Y522322D01*
X817778Y521947D01*
G03X816648Y5196I0018723J-002347D01*
G01Y503679D01*
X8123Y499331D01*
G03X811641Y498791I0031474J-0045131D01*
G01X805791Y504642D01*
G03X801902Y506253I-0038901J-0038914D01*
G01X794552D01*
Y5196D01*
G03X792858Y522302I-0030019J0D01*
G01X792152Y522644D01*
Y53D01*
G03X78915Y533002I-003002J0D01*
G01X78315D01*
G03X780148Y53I0J-003002D01*
G01Y522322D01*
X779678Y521947D01*
G03X778548Y5196I0018723J-002347D01*
G01Y5054D01*
G03X778918Y503956I0030028J0D01*
G02X776727Y500253I-0021914J-0012031D01*
G01X758478D01*
X708741Y549991D01*
G03X704852Y551602I-0038901J-0038914D01*
G01X681322D01*
G02X678905Y554737I0000012J0025001D01*
G03X679102Y55626I-0058047J0015251D01*
G01Y559251D01*
G02X680307Y5605I00125J-0000002D01*
G03X683202Y5635I-0001069J003D01*
G01Y5735D01*
G03X6802Y576502I-003002J0D01*
G01X666D01*
G03X662998Y5735I0J-003002D01*
G01Y5635D01*
G03X665893Y5605I0030019J0D01*
G02X667098Y559251I-000045J-0012492D01*
G01Y55626D01*
G03X667295Y554737I0060017J0000021D01*
G02X664878Y551602I-0024182J-0006349D01*
G01X609899D01*
Y557581D01*
X610634Y557914D01*
G03X612399Y560649I-0012365J002735D01*
G01Y590649D01*
G03X609397Y593651I-003002J0D01*
G01X599396D01*
G03X598048Y593331I0000007J-0030021D01*
G03X5967Y593651I-0013486J-0026819D01*
G01X548597D01*
G03X547248Y59333I0000017J-0030023D01*
G03X545898Y593651I-0013507J-0026811D01*
G01X523196D01*
G03X521848Y593331I0000007J-0030021D01*
G03X5205Y593651I-0013486J-0026819D01*
G01X497797D01*
G03X494795Y590649I0J-003002D01*
G01Y560649D01*
G03X49656Y557914I0030015J0D01*
G01X497295Y557581D01*
Y544951D01*
G03X497866Y542511I0055023J0000008D01*
G02X495626Y538902I-0022402J-0011092D01*
G01X491229D01*
X484312Y545819D01*
Y596831D01*
X485241Y597759D01*
G03X486852Y601648I-0038914J0038901D01*
G01Y611812D01*
G03X485241Y615701I-0055024J-0000011D01*
G01X481001Y619941D01*
G03X477112Y621552I-0038901J-0038914D01*
G01X475275D01*
G03X475145Y62206I-0030246J-0005034D01*
G01Y622943D01*
X475177Y62308D01*
G03X475252Y623746I-0029271J0006669D01*
G01Y633749D01*
G03X474931Y635099I-0030021J-0000007D01*
G03X475252Y636449I-0026811J0013507D01*
G01Y646451D01*
G03X474932Y647799I-0030021J-0000007D01*
G03X475252Y649147I-0026821J0013487D01*
G01Y659149D01*
G03X474931Y660499I-0030021J-0000007D01*
G03X475252Y661849I-0026811J0013507D01*
G01Y671851D01*
G03X474932Y673199I-0030021J-0000007D01*
G03X475252Y674547I-0026821J0013487D01*
G01Y684548D01*
G03X474931Y685898I-0030019J-0000006D01*
G03X475252Y687248I-0026809J0013506D01*
G01Y697249D01*
G03X474931Y698599I-0030021J-0000007D01*
G03X475252Y699949I-0026811J0013507D01*
G01Y70995D01*
G03X474931Y7113I-0030019J-0000006D01*
G03X475252Y71265I-0026809J0013506D01*
G01Y722651D01*
G03X474932Y723999I-0030021J-0000007D01*
G03X475252Y725347I-0026821J0013487D01*
G01Y733752D01*
X477722Y736222D01*
Y749698D01*
X474108Y753312D01*
X437258D01*
X433458Y757112D01*
X382678D01*
X326798Y812992D01*
X186799D01*
X186756Y812995D01*
G03X186552Y813002I-0002049J-002995D01*
G01X166548D01*
G03X166344Y812995I0000009J-003002D01*
G01X166301Y812992D01*
X152032D01*
X149389Y810349D01*
X141912Y817826D01*
Y85344D01*
G03X140154Y857684I-0060017J0D01*
G01X134794Y863044D01*
G03X13055Y864802I-004244J-0042437D01*
G01X120453D01*
G03X117213Y866502I-0032418J-0022409D01*
G01X108887D01*
G03X104948Y862563I0000019J-0039409D01*
G01Y855037D01*
G03X105869Y852506I0039411J0000011D01*
G02Y849294I-0019151J-001606D01*
G03X104948Y846763I0030201J-0025321D01*
G01Y839237D01*
G03X106508Y836099I0039408J0000023D01*
G01Y828602D01*
X10505D01*
G03X102048Y8256I0J-003002D01*
G01Y8106D01*
G03X10505Y807598I003002J0D01*
G01X12105D01*
G03X124052Y8106I0J003002D01*
G01Y8256D01*
G03X12105Y828602I-003002J0D01*
G01X119592D01*
Y836099D01*
G03X121152Y839237I-0023808J0031403D01*
G01Y846763D01*
G03X11959Y849903I-0039409J-0000019D01*
G01X119094Y8509D01*
X11959Y851897D01*
G03X120453Y852798I-0023787J0031421D01*
G01X128064D01*
X129908Y850954D01*
Y81534D01*
G03X131666Y811096I0060017J0D01*
G01X140901Y801861D01*
X135718Y796678D01*
Y764928D01*
X129172Y758382D01*
X094882D01*
X091268Y754768D01*
Y704462D01*
X097422Y698308D01*
X127408D01*
X141378Y712278D01*
X169812D01*
X170008Y712082D01*
Y677792D01*
X177432Y670368D01*
X232818D01*
X254212Y691762D01*
Y728592D01*
X269648Y744028D01*
X343802D01*
X352692Y735138D01*
X380448D01*
G02X382834Y731894I-0000006J-0024999D01*
G03X382698Y731001I0028661J-0008934D01*
G01Y7168D01*
G03X383303Y714993I0030011J0D01*
G02X38274Y711439I-0019962J-0015054D01*
G03X379308Y70485I004609J-006589D01*
G03X38735Y696808I008042J0D01*
G03X395382Y704444I0J0080423D01*
G03X396702Y708199I-0046822J0037554D01*
G01Y713887D01*
X39729Y714254D01*
G03X398702Y7168I-0015894J002546D01*
G01Y731001D01*
G03X398566Y731894I-0030021J-0000004D01*
G02X401542Y735068I0023867J0007444D01*
G02X402174Y733014I-0002948J-0012149D01*
G03X401398Y731I0022255J-002014D01*
G01Y7168D01*
G03X403163Y714065I0030015J0D01*
G01X403898Y713732D01*
Y709682D01*
X403846Y709507D01*
G03X403604Y70785I005554J-0016573D01*
G03X4094Y702054I005796J0D01*
G03X412657Y703056I-0000004J0057959D01*
G02X416562Y700988I0014049J-002068D01*
G01Y700698D01*
X417544Y700482D01*
G02X41858Y700038I-0006435J-0029321D01*
G01X41913Y699666D01*
Y697752D01*
X400148D01*
G03X396259Y696141I0000011J-0055024D01*
G01X387622Y687503D01*
X387125Y687489D01*
G03X381485Y684952I0002254J-0080388D01*
G01X3739D01*
G03X371228Y684259I000001J-0055017D01*
G01X370944Y684102D01*
X35485D01*
G03X351848Y6811I0J-003002D01*
G01Y6711D01*
G03X35485Y668098I003002J0D01*
G01X36905D01*
G03X372037Y670803I0J0030017D01*
G03X374441Y672209I-0014854J0052979D01*
G01X376179Y673948D01*
X381485D01*
G03X38735Y671408I005865J0055013D01*
G03X395389Y679225I0J0080422D01*
G01X395403Y679722D01*
X402429Y686748D01*
X411168D01*
G02X412935Y68248I-0000006J-0025D01*
G01X357352Y626898D01*
G03X355448Y622301I0045983J-0045973D01*
G01Y165099D01*
G03X357352Y160502I0065023J0000003D01*
G01X359319Y158536D01*
G02X358435Y156402I-0008839J-000884D01*
G01X325342D01*
Y174192D01*
X322792D01*
Y19276D01*
G03X321242Y196988I-0065414J0D01*
G01Y215262D01*
X321521Y215606D01*
G03X322402Y218087I-0030598J0024834D01*
G01Y226413D01*
G03X321521Y228894I-0039408J-0000024D01*
G01X321242Y229238D01*
Y23654D01*
G03X319326Y241166I-0065425J0D01*
G01X308276Y252216D01*
G03X30365Y254132I-004626J-0046265D01*
G01X24286D01*
X237802Y25919D01*
Y28823D01*
G03X235886Y292856I-0065425J0D01*
G01X223616Y305126D01*
G03X21899Y307042I-004626J-0046265D01*
G01X210838D01*
X210464Y307471D01*
G03X2082Y308502I-002264J-0019703D01*
G01X1742D01*
G03X171198Y3055I0J-003002D01*
G01Y2955D01*
G03X1742Y292498I003002J0D01*
G01X2082D01*
G03X210464Y293529I0J0030013D01*
G01X210838Y293958D01*
X21628D01*
X224718Y28552D01*
Y25648D01*
G03X226634Y251854I0065425J0D01*
G01X235524Y242964D01*
G03X24015Y241048I004626J0046265D01*
G01X30094D01*
X308158Y23383D01*
Y229238D01*
X307879Y228894D01*
G03X306998Y226413I0030598J-0024834D01*
G01Y218087D01*
G03X307879Y215606I0039408J0000024D01*
G01X308158Y215262D01*
Y19431D01*
G03X309708Y190082I0065414J0D01*
G01Y174192D01*
X307158D01*
Y156402D01*
X273458D01*
X259292Y170568D01*
Y213748D01*
X251868Y221172D01*
X204102D01*
X187788Y204858D01*
Y047872D01*
X193101Y04256D01*
G02X191333Y038292I-0017678J-0017679D01*
G01X129948D01*
X084032Y084208D01*
Y165913D01*
G02X0883Y167681I0025001J0000002D01*
G01X097422Y158558D01*
X138742D01*
Y243392D01*
X164142Y268792D01*
Y314512D01*
X175768Y326138D01*
X212402D01*
Y345152D01*
X232622Y365372D01*
Y430142D01*
X254408Y451928D01*
X283618D01*
X294852Y463162D01*
Y496958D01*
X287428Y504382D01*
X264568D01*
X260562Y508388D01*
Y552318D01*
X327968D01*
X343012Y567362D01*
Y728098D01*
X333048Y738062D01*
X290558D01*
Y651958D01*
X265158Y626558D01*
Y580838D01*
X253532Y569212D01*
X216898D01*
Y552318D01*
X216998D01*
Y472828D01*
X193942Y449772D01*
X065672D01*
X052972Y437072D01*
X005D01*
Y895D01*
X450868D01*
Y766748D01*
X646452D01*
Y895D01*
X985D01*
Y005D01*
X005D01*
Y388455D01*
G02X009268Y390223I0025001J0000002D01*
G01X043008Y356482D01*
Y078352D01*
X112662Y008698D01*
X869247D01*
X926318Y065768D01*
X952908D01*
X962872Y075732D01*
Y075812D01*
X980652Y093592D01*
Y287408D01*
X966878Y301182D01*
X849242D01*
X841818Y293758D01*
Y282308D01*
X839298Y279788D01*
Y262698D01*
X844889D01*
Y251293D01*
X844007Y251021D01*
G03X842223Y249528I0008842J-0028689D01*
G01X841874Y24885D01*
X839999D01*
X839688Y249053D01*
G03X83695Y249866I-002738J-004204D01*
G01X833849D01*
X833719Y25097D01*
G03X831232Y254656I-0048159J-0005673D01*
G01X830582Y255012D01*
Y260088D01*
X831232Y260444D01*
G03X833752Y264697I-0023291J0042531D01*
G01Y275803D01*
G03X83201Y279526I-0048492J0000001D01*
G02X831844Y283213I0016018J0019194D01*
G01X832907Y284275D01*
G03X834518Y288164I-0038914J0038901D01*
G01Y290656D01*
X835052Y29103D01*
G03X836336Y293491I-0017177J0024616D01*
G01Y310509D01*
G03X833334Y313511I-003002J0D01*
G01X824698D01*
G03X821829Y311393I0J-0030021D01*
G01X821557Y310511D01*
X809043D01*
X808771Y311393D01*
G03X805902Y313511I-002869J-0008841D01*
G01X797266D01*
G03X794264Y310509I0J-003002D01*
G01Y307502D01*
X786652D01*
Y31D01*
G03X78365Y313002I-003002J0D01*
G01X76865D01*
G03X765648Y31I0J-003002D01*
G01Y294D01*
G03X76865Y290998I003002J0D01*
G01X78365D01*
G03X786652Y294I0J003002D01*
G01Y296498D01*
X794264D01*
Y293491D01*
G03X797266Y290489I003002J0D01*
G01X805902D01*
G03X808771Y292607I0J0030021D01*
G01X809043Y293489D01*
X821557D01*
X821829Y292607D01*
G03X822609Y291335I0028689J0008841D01*
G01X822616Y291328D01*
X823507Y290438D01*
X816109Y283041D01*
G03X814976Y281393I0038922J-0038893D01*
G01X814645Y280652D01*
X811092D01*
G03X806343Y276756I0000054J-004849D01*
G01X805132Y275752D01*
G03X801309Y274141I0000676J-005502D01*
G01X794959Y267791D01*
G03X793348Y263902I0038914J-0038901D01*
G01Y234928D01*
G03X794959Y231039I0055024J0000011D01*
G01X803989Y222009D01*
G03X807878Y220398I0038901J0038914D01*
G01X921945D01*
G03X9322Y214262I010255J0055015D01*
G03Y237538I0J011638D01*
G03X921945Y231402I0J-0116375D01*
G01X863602D01*
Y23698D01*
X863987Y237349D01*
G03X864911Y239516I-0020791J002167D01*
G01Y248152D01*
G03X862793Y251021I-0030021J0D01*
G01X861911Y251293D01*
Y262698D01*
X889902D01*
X892442Y260158D01*
X941972D01*
X949788Y252342D01*
Y103258D01*
X945782Y099252D01*
X921652D01*
X860692Y038292D01*
X684789D01*
G02X683021Y04256I-0000001J0025002D01*
G01X699466Y059004D01*
G03X701382Y06363I-0046265J004626D01*
G01Y066313D01*
X701694Y066667D01*
G03X702442Y06865I-0022545J001983D01*
G01Y07835D01*
G03X702008Y079905I-0030027J0D01*
G01X701827Y080204D01*
Y086153D01*
X702653Y086451D01*
G03X704637Y089275I-0010178J002824D01*
G01Y095627D01*
G03X70452Y096456I-0030021J-0000009D01*
G02X706922Y099648I0024021J0006921D01*
G01X720012D01*
G03X723901Y101259I-0000011J0055024D01*
G01X731195Y108554D01*
G02X735463Y106787I001768J-0017675D01*
G01Y101975D01*
G03X736013Y100243I0030021J0D01*
G02Y097357I-0020414J-001443D01*
G03X735463Y095625I0024521J-001732D01*
G01Y089275D01*
G03X738465Y086273I003002J0D01*
G01X751165D01*
G03X752788Y08675I-0000006J0030018D01*
G01X753097Y086948D01*
X807802D01*
G03X811691Y088559I-0000011J0055024D01*
G01X820429Y097298D01*
X82485D01*
G03X827852Y1003I0J003002D01*
G01Y11D01*
G03X82708Y11201I-0030026J0D01*
G03X827152Y112894I-0054302J0008872D01*
G01Y11517D01*
X827843Y115515D01*
G03X829502Y1182I-0013433J002685D01*
G01Y1274D01*
G03X828961Y129119I-0030015J0D01*
G02Y131981I00205J001431D01*
G03X829502Y1337I-0024605J001719D01*
G01Y1429D01*
G03X828805Y144823I-0030012J0D01*
G02Y148027I0019195J001602D01*
G03X828901Y148148I-0023029J0019257D01*
G01X829276Y148648D01*
X835713D01*
X836082Y148075D01*
G03X83943Y146248I0033483J0021547D01*
G01X85467D01*
G03X858018Y148075I-0000003J0039817D01*
G01X858387Y148648D01*
X880371D01*
X88212Y146898D01*
G03X886009Y145287I0038901J0038914D01*
G01X922241D01*
G03X92613Y146898I-0000011J0055024D01*
G01X928079Y148848D01*
X945802D01*
Y174352D01*
X920298D01*
Y156629D01*
X91996Y156291D01*
X88829D01*
X886541Y158041D01*
G03X882652Y159652I-0038901J-0038914D01*
G01X858387D01*
X858018Y160225D01*
G03X85467Y162052I-0033483J-0021547D01*
G01X83943D01*
G03X836082Y160225I0000003J-0039817D01*
G01X835713Y159652D01*
X830065D01*
G03X829477Y159852I-0020636J-0051025D01*
G01X829235Y160387D01*
G03X8265Y162152I-002735J-0012365D01*
G01X8168D01*
G03X813798Y15915I0J-003002D01*
G01Y14995D01*
G03X814495Y148027I0030012J0D01*
G02Y144823I-0019195J-001602D01*
G03X813798Y1429I0023042J-001923D01*
G01Y1337D01*
G03X814339Y131981I0030015J0D01*
G02Y129119I-00205J-001431D01*
G03X813798Y1274I0024605J-001719D01*
G01Y1182D01*
G03X815054Y115758I003002J0D01*
G01X815577Y114741D01*
X815423Y114141D01*
G03X814933Y112915I0048272J-0026402D01*
G03X812648Y11I0007168J-002915D01*
G01Y105079D01*
X805521Y097952D01*
X791402D01*
Y10835D01*
G03X790861Y110069I-0030015J0D01*
G02Y112931I00205J001431D01*
G03X790989Y113131I-0024624J0017169D01*
G01X791351Y113748D01*
X792532D01*
G03X796421Y115359I-0000011J0055024D01*
G01X802741Y121679D01*
G03X804352Y125568I-0038914J0038901D01*
G01Y145892D01*
G03X802741Y149781I-0055024J-0000011D01*
G01X798931Y153591D01*
G03X795042Y155202I-0038901J-0038914D01*
G01X785729D01*
X760825Y180106D01*
X760867Y180678D01*
G03X760892Y18135I-0090669J0006738D01*
G03X7518Y172258I-009092J0D01*
G03X752472Y172283I-0000018J0090919D01*
G01X753044Y172325D01*
X779559Y145809D01*
G03X783448Y144198I0038901J0038914D01*
G01X792761D01*
X793348Y143611D01*
Y127849D01*
X791082Y125583D01*
X790214Y126242D01*
G03X7884Y126852I-001814J-0023922D01*
G01X7787D01*
G03X775698Y12385I0J-003002D01*
G01Y11465D01*
G03X776239Y112931I0030015J0D01*
G02Y110069I-00205J-001431D01*
G03X776111Y109869I0024624J-0017169D01*
G01X775749Y109252D01*
X772301D01*
X771939Y109869D01*
G03X771811Y110069I-0025904J-0015169D01*
G02Y112931I00205J001431D01*
G03X772352Y11465I-0024605J001719D01*
G01Y12385D01*
G03X769412Y126851I-0030016J0D01*
G01X76891Y126862D01*
X767671Y128101D01*
X768831Y129261D01*
X769019Y129353D01*
G03X770397Y130731I-001319J002697D01*
G01X770489Y130919D01*
X771102Y131532D01*
Y148818D01*
X756058Y163862D01*
X716688D01*
X678259Y20229D01*
G02X680027Y206558I0017678J0017679D01*
G01X69194D01*
X717308Y18119D01*
Y172258D01*
X735492D01*
Y190442D01*
X72656D01*
X699276Y217726D01*
G03X69465Y219642I-004626J-0046265D01*
G01X665086D01*
X664717Y220027D01*
G03X66255Y220952I-002167J-0020758D01*
G01X63785D01*
G03X63537Y219642I0J-0030025D01*
G01X63531D01*
G03X63166Y218529I0J-0065415D01*
G03X62965Y219302I-0020108J-0022287D01*
G01X61995D01*
G03X617967Y218554I0J-0030025D01*
G01X617613Y218242D01*
X612937D01*
X612583Y218554D01*
G03X6106Y219302I-001983J-0022545D01*
G01X600009D01*
G03X595436Y221166I-004573J-0046775D01*
G01X595388D01*
G03X592542Y223214I-002846J-0009535D01*
G01X586954D01*
G03X584387Y221768I0J-0030015D01*
G01X584022Y221166D01*
X576678D01*
X576313Y221768D01*
G03X573746Y223214I-002567J-0015555D01*
G01X566208D01*
G03X562192Y224592I-004016J-0051631D01*
G01X558629D01*
G02X556276Y227936I0J0024998D01*
G03X556452Y228948I-0028262J0010128D01*
G01Y23815D01*
G03X55345Y241152I-003002J0D01*
G01X54375D01*
G03X541767Y240404I0J-0030025D01*
G01X541413Y240092D01*
X5398D01*
G03X535174Y238176I0J-0065425D01*
G01X528971Y231973D01*
G03X527055Y227347I0046265J-004626D01*
G01Y220707D01*
X52555Y219202D01*
X51558D01*
G03X512583Y217842I-0000001J-0039819D01*
G01X509673D01*
G03X505166Y219642I-004507J-0047425D01*
G01X503203D01*
X502864Y219907D01*
G03X497546Y221738I-005318J-0068074D01*
G03X496436Y221666I000003J-0086378D01*
G02X493642Y224517I-0003216J0024794D01*
G03X493738Y2258I-0085419J0012842D01*
G03X4851Y234438I-008638J0D01*
G03X484282Y234399I0000019J-0086379D01*
G01X484041Y234641D01*
G03X480152Y236252I-0038901J-0038914D01*
G01X440298D01*
G03X436409Y234641I0000011J-0055024D01*
G01X432009Y230241D01*
G03X430398Y226352I0038914J-0038901D01*
G01Y221438D01*
X429634Y221116D01*
G03X427798Y21835I0011655J-002766D01*
G01Y20915D01*
G03X4308Y206148I003002J0D01*
G01X4405D01*
G03X443415Y208433I0J0030018D01*
G03X444357Y208779I-001418J0053159D01*
G02X445953Y208311I0005353J-0011297D01*
G03X446039Y208181I0025459J0015907D01*
G02Y205319I-00205J-001431D01*
G03X445498Y2036I0024605J-001719D01*
G01Y1944D01*
G03X4485Y191398I003002J0D01*
G01X459568D01*
Y156202D01*
X380043D01*
X368452Y167793D01*
Y619607D01*
X421891Y673046D01*
X42682D01*
G02X428587Y668778I-0000005J-0025D01*
G01X383459Y623651D01*
G03X381848Y619762I0038914J-0038901D01*
G01Y466304D01*
G03X374598Y4548I005502J-011504D01*
G03X38735Y442048I012752J0D01*
G01X387353D01*
G03X390901Y442552I-0000017J0127522D01*
G01X391611Y442758D01*
X419159Y415209D01*
G03X423048Y413598I0038901J0038914D01*
G01X458048D01*
Y383279D01*
X455869Y3811D01*
X454355Y382613D01*
X454745Y383414D01*
G03X455142Y385137I-0035441J0017238D01*
G01Y392663D01*
G03X453548Y395827I-0039409J-0000019D01*
G01X453042Y396202D01*
Y40132D01*
G03X441038I-006002J0D01*
G01Y396202D01*
X440532Y395827D01*
G03X438938Y392663I0023469J-0031659D01*
G01Y385137D01*
G03X439859Y382606I0039411J0000011D01*
G02Y379394I-0019151J-001606D01*
G03X438938Y376863I0030201J-0025321D01*
G01Y369337D01*
G03X439393Y3675I003941J0000013D01*
G02X438045Y363987I-0022109J-0011668D01*
G03X436072Y362405I0013754J-0037366D01*
G01X435703Y361832D01*
X426178D01*
G03X422289Y360221I0000011J-0055024D01*
G01X417189Y355121D01*
G03X415578Y351232I0038914J-0038901D01*
G01Y343609D01*
X405976D01*
G03X402974Y340607I0J-003002D01*
G01Y336332D01*
X40132D01*
G03X398473Y335538I0J-0055012D01*
G02X395472Y33585I-0012943J0021389D01*
G03X392783Y336912I-0026912J-0028788D01*
G01X384457D01*
G03X380518Y332973I0000019J-0039409D01*
G01Y325447D01*
G03X381439Y322916I0039411J0000011D01*
G02Y319704I-0019151J-001606D01*
G03X380518Y317173I0030201J-0025321D01*
G01Y309647D01*
G03X382492Y306234I0039409J000002D01*
G01X383118Y305873D01*
Y299012D01*
X38062D01*
G03X377618Y29601I0J-003002D01*
G01Y28101D01*
G03X38062Y278008I003002J0D01*
G01X39662D01*
G03X399622Y28101I0J003002D01*
G01Y29601D01*
G03X39662Y299012I-003002J0D01*
G01X394122D01*
Y305873D01*
X394748Y306234D01*
G03X396722Y309647I-0019669J003415D01*
G01Y317173D01*
G03X395801Y319704I-0039411J-0000011D01*
G02Y322916I0019151J001606D01*
G03X396002Y323178I-0030237J0025278D01*
G01X396376Y323708D01*
X3997D01*
G03X400232Y323734I-0000023J0055019D01*
G02X402974Y321246I000242J-0024883D01*
G01Y321053D01*
G03X405976Y318051I003002J0D01*
G01X409078D01*
Y293112D01*
X40767D01*
G03X403688Y28913I-0000001J-0039819D01*
G01Y28129D01*
G03X40767Y277308I0039819J-0000001D01*
G37*
G36*
G01X221Y54991D02*
X25529D01*
X25656Y54864D01*
Y50673D01*
X26291Y50038D01*
X28577D01*
X29085Y4953D01*
Y46482D01*
X28196Y45593D01*
X25275D01*
X22862Y4318D01*
Y36703D01*
X2083Y34671D01*
X17401D01*
Y37973D01*
X15877Y39497D01*
X08892D01*
X08003Y38608D01*
Y08255D01*
X12829Y03429D01*
X86235D01*
X92331Y09525D01*
X94744D01*
X95379Y1016D01*
Y254D01*
X94363Y26416D01*
X8941D01*
X89156Y2667D01*
X8433D01*
Y27813D01*
X84582Y28065D01*
Y2921D01*
X8509Y29718D01*
X96522D01*
X97665Y28575D01*
Y09525D01*
X95887Y07747D01*
Y07739D01*
X95125Y06977D01*
X92466D01*
X867589Y0127D01*
X11432D01*
X04701Y08001D01*
Y35814D01*
X00637Y39878D01*
Y43307D01*
X05463D01*
X06733Y44577D01*
X1956D01*
X221Y47117D01*
Y54991D01*
G37*
G36*
G01X090578Y390968D02*
X157112D01*
X170008Y378072D01*
Y343032D01*
X101332D01*
X0883Y329999D01*
G02X084032Y331767I-0017679J0017678D01*
G01Y384422D01*
X090578Y390968D01*
G37*
G36*
G01X2084Y33014D02*
X17411D01*
X16014Y31617D01*
Y27045D01*
X13474Y24505D01*
Y16256D01*
X09908D01*
X09029Y17135D01*
Y32633D01*
X10299Y33903D01*
X2084D01*
Y33014D01*
G37*
G36*
G01X15369Y80899D02*
X32514D01*
X35691Y77722D01*
G02X356434Y773312I-0017676J-0017677D01*
G03X353634Y76835I0029967J-004962D01*
G03X35943Y762554I005796J0D01*
G03X364392Y765354I0J0057967D01*
G02X3683Y76583I0021403J-0012916D01*
G01X38102Y75311D01*
X4318D01*
X4356Y74931D01*
X439549D01*
X439924Y74885D01*
G03X44225Y747746I002326J0018983D01*
G01X47372D01*
Y73835D01*
X45801D01*
X45722Y73914D01*
X35435D01*
X34546Y74803D01*
X26799D01*
X25021Y73025D01*
Y69342D01*
X23116Y67437D01*
X17909D01*
X17401Y67945D01*
Y71374D01*
X17147Y71628D01*
X13972D01*
X12575Y70231D01*
X09908D01*
X09527Y70612D01*
Y75311D01*
X09654Y75438D01*
X13083D01*
X13972Y76327D01*
Y79502D01*
X15369Y80899D01*
G37*
G36*
G01X20576Y21717D02*
X25021D01*
X25529Y21209D01*
Y16891D01*
X2718Y1524D01*
X365455D01*
X372752Y145102D01*
G03X37581Y143383I0045971J0045984D01*
G01X37615Y1433D01*
X37721Y14224D01*
X48516D01*
Y12319D01*
X48262Y12065D01*
X39118D01*
X36832Y09779D01*
X3099D01*
X30863Y09906D01*
X27053D01*
X26164Y09017D01*
Y04826D01*
X25783Y04445D01*
X19687D01*
X19179Y04953D01*
Y2032D01*
X20576Y21717D01*
G37*
G36*
G01X2209Y56521D02*
X25519D01*
X26916Y57918D01*
Y6249D01*
X29456Y6503D01*
Y73406D01*
X33139D01*
X33901Y72644D01*
Y56902D01*
X32631Y55632D01*
X2209D01*
Y56521D01*
G37*
G36*
G01X686483Y100243D02*
G02Y097357I-0020414J-001443D01*
G03X685933Y095625I0024521J-001732D01*
G01Y089275D01*
G03X687917Y086451I0030018J0D01*
G01X688743Y086153D01*
Y083271D01*
X688728Y083227D01*
G03X688296Y08089I0061118J-0023382D01*
G01Y080637D01*
G03X687238Y07835I0019428J-002287D01*
G01Y06865D01*
G03X687682Y06708I0030017J0000011D01*
G01X688197Y066239D01*
X67041Y048452D01*
X508368D01*
G02X506601Y05272I0000005J0025D01*
G01X511891Y058009D01*
G03X513024Y059657I-0038922J0038893D01*
G01X513355Y060398D01*
X516D01*
G03X519002Y0634I0J003002D01*
G01Y0784D01*
G03X516Y081402I-003002J0D01*
G01X5D01*
G03X496998Y0784I0J-003002D01*
G01Y063399D01*
G03X497092Y062654I0030021J0000004D01*
G01X497131Y062343D01*
G02X495881Y061093I-0012499J-0000001D01*
G01X495614Y061122D01*
G03X49497Y061192I-0006445J-0029319D01*
G01X487806D01*
G02X485806Y065191I0000006J0024999D01*
G03X486602Y067579I-0031859J0023886D01*
G01Y07542D01*
G03X48262Y079402I-0039819J0000001D01*
G01X46738D01*
G03X463398Y07542I-0000001J-0039819D01*
G01Y06758D01*
G03X467249Y0636I0039819J-0000002D01*
G01X468458Y062351D01*
Y062033D01*
X468437Y06192D01*
G03X468378Y061537I0064334J-0011871D01*
G02X467071Y060443I-0012406J0001544D01*
G03X46675Y060452I-0003286J-0059928D01*
G01X449991D01*
X449817Y060503D01*
G03X448965Y060627I-0008538J-0028777D01*
G01X436265D01*
G03X433263Y057625I0J-003002D01*
G01Y051275D01*
G03X436265Y048273I003002J0D01*
G01X448965D01*
G03X449817Y048397I-0000018J0030017D01*
G01X449991Y048448D01*
X464364D01*
X464669Y048257D01*
G03X467493Y047349I0031922J0050826D01*
G03X468326Y046203I0027762J0011422D01*
G01Y04595D01*
G03X470354Y041214I006544J0D01*
G01X471013Y040555D01*
X471064Y040488D01*
G03X471189Y040329I0052049J0039633D01*
G01X471468Y039542D01*
G02X470218Y038292I-00125J0D01*
G01X263367D01*
G02X261599Y04256I-0000002J0025001D01*
G01X265642Y046602D01*
Y059413D01*
G02X268704Y061849I0025001J-0000001D01*
G03X269587Y061748I0008865J0038397D01*
G01X277113D01*
G03X280251Y063308I-0000023J0039408D01*
G01X287748D01*
Y06185D01*
G03X29075Y058848I003002J0D01*
G01X30575D01*
G03X308752Y06185I0J003002D01*
G01Y07785D01*
G03X30575Y080852I-003002J0D01*
G01X29075D01*
G03X287748Y07785I0J-003002D01*
G01Y076392D01*
X280251D01*
G03X277113Y077952I-0031403J-0023808D01*
G01X269587D01*
G03X268704Y077851I0000035J-0039407D01*
G02X265642Y080287I-0005619J0024361D01*
G01Y088512D01*
X272188Y095058D01*
X306972D01*
X308242Y093788D01*
X369978D01*
X392838Y116648D01*
X437048D01*
Y10675D01*
G03X437818Y104743I0030006J0D01*
G01X438138Y103908D01*
X437948Y103245D01*
G03X437113Y100332I0046673J-002914D01*
G01Y099958D01*
X435981Y098714D01*
G03X433263Y095725I0002845J-002989D01*
G01Y089375D01*
G03X433813Y087643I0030021J0D01*
G02Y084757I-0020414J-001443D01*
G03X433263Y083025I0024521J-001732D01*
G01Y076675D01*
G03X436265Y073673I003002J0D01*
G01X448965D01*
G03X451967Y076675I0J003002D01*
G01Y083025D01*
G03X451417Y084757I-0030021J0D01*
G02Y087643I0020414J001443D01*
G03X451967Y089375I-0024521J001732D01*
G01Y095725D01*
G03X450256Y098435I-0030016J0D01*
G02X449656Y100082I0005375J0011286D01*
G03X450152Y102365I-0050061J002283D01*
G01Y103799D01*
X450769Y104161D01*
G03X451935Y105407I-0015185J0025896D01*
G01X45228Y106098D01*
X455228D01*
X455403Y106046D01*
G03X45706Y105804I0016573J005554D01*
G03X462856Y1116I0J005796D01*
G01Y111601D01*
G03X462576Y11338I-005796J-0000007D01*
G02X464955Y116648I002379J0007681D01*
G01X484278D01*
X489162Y121532D01*
Y143198D01*
X516751D01*
G03X521348Y145102I-0000003J0065023D01*
G01X53524Y158995D01*
G02X539508Y157228I001768J-0017676D01*
G01Y146858D01*
X557692D01*
Y157261D01*
X562328Y161897D01*
G02X565339Y158717I0006298J-0024191D01*
G03X564908Y155952I0086611J-0027662D01*
G01Y15595D01*
G03X568498Y148712I0090915J0D01*
G01Y143248D01*
G03X570109Y139359I0055024J0000011D01*
G01X582674Y126795D01*
G02X580907Y122527I-0017675J-001768D01*
G01X569323D01*
Y108254D01*
X568899Y107831D01*
G03X567288Y103942I0038914J-0038901D01*
G01Y092488D01*
G03X568899Y088599I0055024J0000011D01*
G01X569323Y088176D01*
Y078902D01*
X55763D01*
X557285Y079593D01*
G03X5546Y081252I-002685J-0013433D01*
G01X540002D01*
Y084649D01*
X540619Y085011D01*
G03X542102Y0876I-0015184J002589D01*
G01Y0973D01*
G03X5391Y100302I-003002J0D01*
G01X5299D01*
G03X526898Y0973I0J-003002D01*
G01Y0876D01*
G03X528381Y085011I0030014J0D01*
G01X528998Y084649D01*
Y081201D01*
X528381Y080839D01*
G03X526898Y07825I0015184J-002589D01*
G01Y06855D01*
G03X528381Y065961I0030014J0D01*
G01X528998Y065599D01*
Y063528D01*
G03X530609Y059639I0055024J0000011D01*
G01X534609Y055639D01*
G03X538498Y054028I0038901J0038914D01*
G01X591882D01*
G03X595771Y055639I-0000011J0055024D01*
G01X602866Y062735D01*
X603526Y0626D01*
G03X60575Y062373I0022259J0107998D01*
G03X594723Y0734I0J011027D01*
G03X59495Y071176I0110268J0000019D01*
G01X595085Y070516D01*
X593511Y068942D01*
G02X591377Y069825I-000884J0008837D01*
G01Y084427D01*
X585942D01*
X585818Y085539D01*
G03X584241Y088821I-0054685J-0006077D01*
G01X578292Y094769D01*
Y100473D01*
X583596D01*
X590329Y093739D01*
G03X594218Y092128I0038901J0038914D01*
G01X666772D01*
G03X670661Y093739I-0000011J0055024D01*
G01X677141Y100219D01*
G03X678747Y103885I-0038916J0038896D01*
G03X680818Y106297I-0008968J0028651D01*
G03X682157Y106868I-0014698J0053022D01*
G02X685933Y104718I001276J-0021498D01*
G01Y101975D01*
G03X686483Y100243I0030021J0D01*
G37*
G36*
G01X439355Y659957D02*
X439324Y659819D01*
G03X439248Y659148I002926J-0006712D01*
G01Y646952D01*
X433168D01*
G03X429279Y645341I0000011J-0055024D01*
G01X406319Y622381D01*
G03X404708Y618492I0038914J-0038901D01*
G01Y535938D01*
G03X406319Y532049I0055024J0000011D01*
G01X470748Y467621D01*
Y422718D01*
G02X46648Y420951I-0025J0000005D01*
G01X464441Y422991D01*
G03X460552Y424602I-0038901J-0038914D01*
G01X425329D01*
X399392Y450539D01*
X399598Y451249D01*
G03X400102Y454797I-0122482J0035497D01*
G01Y4548D01*
G03X392852Y466304I-012752J0D01*
G01Y617481D01*
X436719Y661348D01*
X439225D01*
G03X439355Y66084I0030246J0005034D01*
G01Y659957D01*
G37*
G36*
G01X438592Y553439D02*
Y580271D01*
G02X441618Y582715I0024999J0000001D01*
G03X44225Y582648I0006307J0029351D01*
G01X451748D01*
Y546318D01*
G02X44748Y544551I-0025J0000005D01*
G01X438592Y553439D01*
G37*
G36*
G01X439355Y621857D02*
X439324Y621719D01*
G03X439248Y62105I0029258J-0006712D01*
G01Y61105D01*
G03X439324Y610381I0030018J0000022D01*
G01X439355Y610243D01*
Y60936D01*
G03X439225Y608852I0028946J-0010114D01*
G01X437328D01*
G03X433439Y607241I0000011J-0055024D01*
G01X43141Y605211D01*
G02X427142Y606978I-001768J0017675D01*
G01Y614941D01*
X435449Y623248D01*
X439225D01*
G03X439355Y622738I0030251J0004995D01*
G01Y621857D01*
G37*
G36*
G01X422479Y722698D02*
X428043D01*
X428248Y721699D01*
G03X428781Y720594I0024487J0005001D01*
G02X429702Y718063I-0030201J-0025321D01*
G01Y710537D01*
G02X425763Y706598I-0039409J0000019D01*
G01X415196D01*
Y707848D01*
Y70785D01*
G03X414954Y709507I-005796J-0000003D01*
G01X414902Y709682D01*
Y713732D01*
X415637Y714065D01*
G03X417402Y7168I-0012365J002735D01*
G01Y718545D01*
X418143Y718876D01*
G03X419791Y720009I-0022413J0050252D01*
G01X422479Y722698D01*
G37*
G36*
G01X439355Y723455D02*
X439323Y723318D01*
G03X439248Y722652I0029271J-0006669D01*
G01Y71265D01*
G03X439569Y7113I0030019J0000006D01*
G03X439248Y70995I0026809J-0013506D01*
G01Y69995D01*
G03X439324Y699279I003002J0000002D01*
G01X439355Y699141D01*
Y698258D01*
G03X439225Y69775I0028946J-0010114D01*
G01X436355D01*
X436183Y698797D01*
G03X435755Y699837I-0024668J-0004071D01*
G02X434648Y70331I0048944J003473D01*
G01Y706998D01*
X434142Y707373D01*
G02X432548Y710537I0023469J0031659D01*
G01Y718063D01*
G02X433469Y720594I0039411J-0000011D01*
G03X433786Y723325I-001915J0016062D01*
G03X434618Y724323I-0018353J0023758D01*
G03X435802Y724726I-0011694J0053765D01*
G01X436056Y724846D01*
X439225D01*
G03X439355Y724338I0030246J0005034D01*
G01Y723455D01*
G37*
G36*
G01X47373Y20558D02*
X49151D01*
X493415Y203675D01*
X499765D01*
X5004Y20304D01*
X67185D01*
X71503Y15986D01*
X7544D01*
X7671Y14716D01*
Y13319D01*
X76202Y12811D01*
X73789D01*
Y13954D01*
X73535Y14208D01*
X70868D01*
X6655Y18526D01*
X54215D01*
X51548Y15859D01*
X46611D01*
X46357Y16113D01*
Y19542D01*
X47373Y20558D01*
G37*
G36*
G01X442579Y225248D02*
X460185D01*
Y223761D01*
X460098Y22354D01*
G03X459967Y223087I0023256J-000918D01*
G02X45858Y222078I-0012283J0002307D01*
G03X4582Y222102I-0003788J-0029781D01*
G01X4485D01*
G03X445911Y220619I0J-0030014D01*
G01X445549Y220002D01*
X443065D01*
X442694Y220399D01*
G03X442019Y220939I-0021932J-0020497D01*
G01X441402Y221301D01*
Y224071D01*
X442579Y225248D01*
G37*
G36*
G01X492841Y480141D02*
X459917Y513064D01*
G02X460801Y515198I0008837J000884D01*
G01X518441D01*
X534268Y499371D01*
Y426609D01*
X529611Y421952D01*
X525841D01*
X525569Y422834D01*
G03X5227Y424952I-002869J-0008841D01*
G01X4967D01*
G03X495995Y424868I0000002J-003002D01*
G01X495851Y424833D01*
X494452D01*
Y428067D01*
X495851D01*
X495995Y428032D01*
G03X4967Y427948I0007052J002918D01*
G01X5227D01*
G03X525702Y43095I0J003002D01*
G01Y44195D01*
G03X5227Y444952I-003002J0D01*
G01X4967D01*
G03X495995Y444868I0000002J-003002D01*
G01X495851Y444833D01*
X494452D01*
Y448067D01*
X495851D01*
X495995Y448032D01*
G03X4967Y447948I0007052J002918D01*
G01X5227D01*
G03X525702Y45095I0J003002D01*
G01Y46195D01*
G03X5227Y464952I-003002J0D01*
G01X494452D01*
Y47625D01*
G03X492841Y480141I-0055024J0000009D01*
G37*
G36*
G01X462752Y582648D02*
X473308D01*
Y543808D01*
G02X46904Y542041I-0025J0000005D01*
G01X462752Y548329D01*
Y582648D01*
G37*
G36*
G01X585042Y161978D02*
X588358D01*
G02X590739Y158717I-0000002J-0024999D01*
G03X590308Y15595I0086611J-0027662D01*
G03X5994Y146858I009092J0D01*
G03X608451Y155083I0J0090925D01*
G02X612707Y156612I0024884J-0002387D01*
G01X647639Y121679D01*
G03X650107Y120255I0038901J0038914D01*
G02X650773Y118284I-0003233J-0012073D01*
G03X650465Y117793I0023773J-0018334D01*
G01X65012Y117102D01*
X615248D01*
G03X60575Y122527I-009498J-005602D01*
G03X603526Y1223I0000019J-0110268D01*
G01X602866Y122165D01*
X579502Y145529D01*
Y148712D01*
G03X583092Y15595I-0055015J007238D01*
G03X582661Y158717I-0090921J0000008D01*
G02X585042Y161978I0023812J0007611D01*
G37*
G36*
G01X619818Y171098D02*
X6337D01*
X650148Y15465D01*
Y1512D01*
G03X650896Y149217I0030025J0D01*
G01X651208Y148863D01*
Y144187D01*
X650896Y143833D01*
G03X650148Y14185I0022545J-001983D01*
G01Y140768D01*
G02X64588Y139001I-0025J0000005D01*
G01X618051Y16683D01*
G02X619818Y171098I0017675J001768D01*
G37*
G36*
G01X677517Y127176D02*
G02X681223Y127366I0019388J-0015781D01*
G01X681929Y126659D01*
G03X682398Y126242I0038845J0038967D01*
G02X682329Y122274I-0015551J-0019576D01*
G03X681709Y121741I003267J-0044274D01*
G01X679421Y119452D01*
X675868D01*
G02X674101Y12372I0000005J0025D01*
G01X677141Y126759D01*
G03X677517Y127176I-0038931J0038884D01*
G37*
G36*
G01X648079Y181258D02*
X663842D01*
X707022Y138078D01*
X733692D01*
X733888Y137882D01*
Y124602D01*
G02X732651Y123352I-0012499J-0000002D01*
G03X728819Y121741I0000585J-005502D01*
G01X717731Y110652D01*
X706922D01*
G02X70452Y113844I0000001J0024999D01*
G03X704637Y114675I-0028851J0008299D01*
G01Y121025D01*
G03X704087Y122757I-0030021J0D01*
G02Y125643I0020414J001443D01*
G03X704637Y127375I-0024521J001732D01*
G01Y133725D01*
G03X701635Y136727I-003002J0D01*
G01X687424D01*
X683261Y140891D01*
G03X680817Y142308I-0038893J-003892D01*
G03X67785Y144852I-002967J-0004582D01*
G01X664292D01*
Y148863D01*
X664604Y149217D01*
G03X665352Y1512I-0022545J001983D01*
G01Y1609D01*
G03X66235Y163902I-003002J0D01*
G01X6594D01*
X646311Y17699D01*
G02X648079Y181258I0017679J0017678D01*
G37*
%LPC*%
G75*
G36*
G01X922982Y488528D02*
X895252D01*
Y47625D01*
G02X894614Y4744I-0030012J0D01*
G02X894985Y473787I-0023643J-0018497D01*
G01X895318Y473052D01*
X91078D01*
G02X914608Y471502I0J-005502D01*
G01X934246D01*
G02X94575Y478752I011504J-005502D01*
G02Y453248I0J-012752D01*
G02X934246Y460498I0J012752D01*
G01X91233D01*
G02X908502Y462048I0J005502D01*
G01X895318D01*
X894985Y461313D01*
G02X89225Y459548I-002735J0012365D01*
G01X875328D01*
X875179Y459511D01*
G02X87385Y459348I-0013293J005339D01*
G01X870317D01*
X870247Y458172D01*
G02X869377Y456232I-0029967J0001788D01*
G03Y454468I0008862J-000882D01*
G02X870247Y452528I-0021267J-0021188D01*
G01X870317Y451352D01*
X876972D01*
G02X880861Y449741I-0000011J-0055024D01*
G01X889041Y441561D01*
G02X890652Y437672I-0038914J-0038901D01*
G01Y419402D01*
X89225D01*
G02X894985Y417637I0J-0030015D01*
G01X895318Y416902D01*
X929552D01*
G02X933441Y415291I-0000011J-0055024D01*
G01X940779Y407952D01*
X958502D01*
Y382448D01*
X932998D01*
Y400171D01*
X927271Y405898D01*
X895318D01*
X894985Y405163D01*
G02X894614Y40455I-0027353J0012367D01*
G02X895252Y4027I-0023632J-00185D01*
G01Y3927D01*
G02X892929Y389776I-0030017J0D01*
G01X891962Y389551D01*
Y387088D01*
X898898Y380152D01*
X915502D01*
G02X919391Y378541I-0000011J-0055024D01*
G01X941489Y356442D01*
X942199Y356648D01*
G02X945747Y357152I0035497J-0122482D01*
G01X94575D01*
G02X932998Y3444I0J-012752D01*
G01Y344403D01*
G02X933502Y347951I0127522J-0000017D01*
G01X933708Y348661D01*
X913221Y369148D01*
X896617D01*
G02X892728Y370759I0000011J0055024D01*
G01X882569Y380918D01*
G02X880958Y384807I0038914J0038901D01*
G01Y387636D01*
G02X880126Y388957I0041925J0035631D01*
G01X879795Y389698D01*
X87805D01*
G02X875315Y391463I0J0030015D01*
G01X874982Y392198D01*
X870647D01*
G02X869905Y39192I-0022971J0050019D01*
G01X869719Y391316D01*
G02X86685Y389198I-002869J0008841D01*
G01X85265D01*
G02X849915Y390963I0J0030015D01*
G01X849582Y391698D01*
X846938D01*
G02X843049Y393309I0000011J0055024D01*
G01X830519Y405839D01*
G02X828908Y409728I0038914J0038901D01*
G01Y416341D01*
X825154Y420095D01*
G03X820886Y418328I-001768J-0017675D01*
G01Y406236D01*
X784434D01*
Y428914D01*
X79053Y43501D01*
Y444182D01*
X789161D01*
X789044Y444159D01*
G02X788403Y444098I-0006413J0033406D01*
G01X787634D01*
X787345Y443931D01*
G02X784602Y443198I-0027439J0047693D01*
G01X781492D01*
Y440088D01*
G02X779881Y436199I-0055024J0000011D01*
G01X776091Y432409D01*
G02X77226Y430798I-0038905J003891D01*
G02X770007Y428383I-0029595J0005026D01*
G01X769052Y428151D01*
Y42624D01*
G02X768573Y423995I-0055019J0000003D01*
G03X769467Y420896I0022827J-0010199D01*
G02X770802Y4184I-0016658J-002496D01*
G01Y4034D01*
G02X7678Y400398I-003002J0D01*
G01X7548D01*
G02X751798Y4034I0J003002D01*
G01Y4184D01*
G02X754622Y421397I0030023J0D01*
G03X755798Y422644I-0000739J0012477D01*
G01Y423991D01*
G02X756292Y426269I0055021J-0000006D01*
G03X755736Y42912I-0022751J001036D01*
G02X754798Y4313I0020643J00218D01*
G01Y440558D01*
X749766D01*
Y427318D01*
X730332D01*
Y450504D01*
X735216Y455388D01*
X750906D01*
Y480476D01*
X755282Y484852D01*
X77333D01*
X778722Y47946D01*
Y472802D01*
X788402D01*
G02X791802Y469402I-0000015J-0034015D01*
G01Y466998D01*
G02X791115Y46495I-0034014J0000018D01*
G02X791802Y462902I-0027144J-0020498D01*
G01Y460722D01*
X792438D01*
Y44967D01*
X791802D01*
Y447498D01*
G02X791755Y446938I-0034014J0000035D01*
G01X791738Y446836D01*
Y445482D01*
X818288D01*
X819418Y444352D01*
X820075Y444485D01*
G02X820746Y444552I0006718J-0033347D01*
G01X823152D01*
G02X823419Y444541I-0000064J-0034013D01*
G03X826109Y447231I0001975J0024925D01*
G02X826098Y447498I0033903J0002734D01*
G01Y449902D01*
G02X826785Y45195I0034014J-0000018D01*
G02X826098Y453998I0027144J0020498D01*
G01Y456402D01*
G02X826785Y45845I0034014J-0000018D01*
G02X826098Y460498I0027144J0020498D01*
G01Y462902D01*
G02X826785Y46495I0034014J-0000018D01*
G02X826098Y466998I0027144J0020498D01*
G01Y469402D01*
G02X829498Y472802I0034015J-0000015D01*
G01X830266D01*
X830555Y472969D01*
G02X833298Y473702I0027439J-0047693D01*
G01X840457D01*
X846495Y479741D01*
G02X850384Y481352I0038901J-0038914D01*
G01X860151D01*
X863939Y485141D01*
G02X867828Y486752I0038901J-0038914D01*
G01X874982D01*
X875315Y487487D01*
G02X87805Y489252I002735J-0012365D01*
G01X879795D01*
X880126Y489993D01*
G02X881259Y491641I0050252J-0022413D01*
G01X887539Y497921D01*
G02X891428Y499532I0038901J-0038914D01*
G01X920701D01*
X932998Y511829D01*
Y529552D01*
X958502D01*
Y504048D01*
X940779D01*
X926871Y490139D01*
G02X922982Y488528I-0038901J0038914D01*
G37*
G36*
G01X121142Y66294D02*
Y654984D01*
G02X121757Y654302I-0027794J-0031246D01*
G01X18915D01*
G02X193776Y652386I0J-0065425D01*
G01X202666Y643496D01*
G02X204582Y63887I-0046265J-004626D01*
G01Y60983D01*
X21302Y601392D01*
X218462D01*
X218836Y601821D01*
G02X2211Y602852I002264J-0019703D01*
G01X2551D01*
G02X258102Y59985I0J-003002D01*
G01Y58985D01*
G02X2551Y586848I-003002J0D01*
G01X2211D01*
G02X218836Y587879I0J0030013D01*
G01X218462Y588308D01*
X21031D01*
G02X205684Y590224I0J0065425D01*
G01X193414Y602494D01*
G02X191498Y60712I0046265J004626D01*
G01Y63616D01*
X18644Y641218D01*
X122727D01*
X12265Y641208D01*
G02X121845Y641158I-0008073J0064922D01*
G01X121799D01*
G02X118363Y639357I-003438J0023809D01*
G01X110837D01*
G02X106657Y643537I0000019J0041819D01*
G01Y651863D01*
G02X108058Y654984I0041818J-0000022D01*
G01Y660262D01*
G02X106508Y66449I0049914J004228D01*
G01Y676708D01*
X103958D01*
Y694892D01*
X122142D01*
Y676708D01*
X119592D01*
Y667168D01*
G02X121142Y66294I-0049914J-004228D01*
G37*
G36*
G01X729402Y747021D02*
Y735159D01*
G03X73367Y733391I0025001J-0000002D01*
G01X735216Y734938D01*
X750906D01*
Y760026D01*
X755282Y764402D01*
X77333D01*
X778722Y75901D01*
Y752352D01*
X788402D01*
G02X791802Y748952I-0000015J-0034015D01*
G01Y746548D01*
G02X791115Y7445I-0034014J0000018D01*
G02X791802Y742452I-0027144J-0020498D01*
G01Y740272D01*
X792438D01*
Y72922D01*
X791802D01*
Y727048D01*
G02X791755Y726488I-0034013J0000035D01*
G01X791738Y726386D01*
Y725032D01*
X818288D01*
X819418Y723902D01*
X820075Y724035D01*
G02X820746Y724102I0006718J-0033347D01*
G01X823152D01*
G02X823419Y724091I-0000064J-0034013D01*
G03X826109Y726781I0001975J0024925D01*
G02X826098Y727048I0033903J0002734D01*
G01Y729452D01*
G02X826785Y7315I0034014J-0000018D01*
G02X826098Y733548I0027144J0020498D01*
G01Y735952D01*
G02X826785Y738I0034014J-0000018D01*
G02X826098Y740048I0027144J0020498D01*
G01Y742452D01*
G02X826785Y7445I0034014J-0000018D01*
G02X826098Y746548I0027144J0020498D01*
G01Y748952D01*
G02X829498Y752352I0034015J-0000015D01*
G01X830266D01*
X830555Y752519D01*
G02X833298Y753252I0027439J-0047693D01*
G01X838531D01*
X849969Y764691D01*
G02X853858Y766302I0038901J-0038914D01*
G01X874982D01*
X875315Y767037D01*
G02X87805Y768802I002735J-0012365D01*
G01X89225D01*
G02X894985Y767037I0J-0030015D01*
G01X895318Y766302D01*
X917921D01*
X932998Y781379D01*
Y799102D01*
X958502D01*
Y773598D01*
X940779D01*
X924091Y756909D01*
G02X920202Y755298I-0038901J0038914D01*
G01X895318D01*
X894985Y754563D01*
G02X894614Y75395I-0027353J0012367D01*
G02X894985Y753337I-0023643J-0018497D01*
G01X895318Y752602D01*
X90474D01*
G02X908629Y750991I-0000011J-0055024D01*
G01X918567Y741052D01*
X934246D01*
G02X94575Y748302I011504J-005502D01*
G02Y722798I0J-012752D01*
G02X934246Y730048I0J012752D01*
G01X916286D01*
G02X912397Y731659I0000011J0055024D01*
G01X902459Y741598D01*
X895318D01*
X894985Y740863D01*
G02X89225Y739098I-002735J0012365D01*
G01X875328D01*
X875179Y739061D01*
G02X87385Y738898I-0013293J005339D01*
G01X870317D01*
X870247Y737722D01*
G02X869377Y735782I-0029967J0001788D01*
G03Y734018I0008862J-000882D01*
G02X870247Y732078I-0021267J-0021188D01*
G01X870317Y730902D01*
X876972D01*
G02X880861Y729291I-0000011J-0055024D01*
G01X889041Y721111D01*
G02X890652Y717222I-0038914J-0038901D01*
G01Y698952D01*
X89225D01*
G02X894985Y697187I0J-0030015D01*
G01X895318Y696452D01*
X934752D01*
G02X938641Y694841I-0000011J-0055024D01*
G01X949641Y683841D01*
G02X951252Y679952I-0038914J-0038901D01*
G01Y677502D01*
X958502D01*
Y651998D01*
X932998D01*
Y677502D01*
X934382D01*
G03X936149Y68177I-0000005J0025D01*
G01X932471Y685448D01*
X895318D01*
X894985Y684713D01*
G02X894614Y6841I-0027353J0012367D01*
G02X894985Y683487I-0023643J-0018497D01*
G01X895318Y682752D01*
X908652D01*
G02X912541Y681141I-0000011J-0055024D01*
G01X923842Y66984D01*
G02X925453Y665951I-0038914J-0038901D01*
G01Y642028D01*
X941489Y625992D01*
X942199Y626198D01*
G02X945747Y626702I0035497J-0122482D01*
G01X94575D01*
G02X932998Y61395I0J-012752D01*
G01Y613953D01*
G02X933502Y617501I0127522J-0000017D01*
G01X933708Y618211D01*
X91606Y635858D01*
G02X914449Y639747I0038914J0038901D01*
G01Y66367D01*
X906371Y671748D01*
X895318D01*
X894985Y671013D01*
G02X89225Y669248I-002735J0012365D01*
G01X87805D01*
G02X875315Y671013I0J0030015D01*
G01X874982Y671748D01*
X870647D01*
G02X869905Y67147I-0022971J0050019D01*
G01X869719Y670866D01*
G02X86685Y668748I-002869J0008841D01*
G01X85265D01*
G02X849915Y670513I0J0030015D01*
G01X849582Y671248D01*
X846938D01*
G02X843049Y672859I0000011J0055024D01*
G01X830519Y685389D01*
G02X828908Y689278I0038914J0038901D01*
G01Y700971D01*
X828321Y701558D01*
X825519D01*
G02X824053Y701757I0000004J0055021D01*
G03X820886Y699348I-0006671J-0024093D01*
G01Y685786D01*
X784434D01*
Y708464D01*
X79053Y71456D01*
Y723732D01*
X789161D01*
X789044Y723709D01*
G02X788403Y723648I-0006413J0033406D01*
G01X787634D01*
X787345Y723481D01*
G02X784602Y722748I-0027439J0047693D01*
G01X781492D01*
Y719638D01*
G02X779881Y715749I-0055024J0000011D01*
G01X776091Y711959D01*
G02X77226Y710348I-0038905J003891D01*
G02X770007Y707933I-0029595J0005026D01*
G01X769052Y707701D01*
Y70579D01*
G02X768573Y703545I-0055019J0000003D01*
G03X769467Y700446I0022827J-0010199D01*
G02X770802Y69795I-0016658J-002496D01*
G01Y68295D01*
G02X7678Y679948I-003002J0D01*
G01X7548D01*
G02X751798Y68295I0J003002D01*
G01Y69795D01*
G02X754622Y700947I0030023J0D01*
G03X755798Y702194I-0000739J0012477D01*
G01Y703541D01*
G02X756292Y705819I0055021J-0000006D01*
G03X755736Y70867I-0022751J001036D01*
G02X754798Y71085I0020643J00218D01*
G01Y720108D01*
X749766D01*
Y706868D01*
X729402D01*
Y654048D01*
G02X727791Y650159I-0055024J0000011D01*
G01X716149Y638518D01*
G03X717916Y63425I0017675J-001768D01*
G01X773264D01*
G02X777153Y632639I-0000011J-0055024D01*
G01X855289Y554502D01*
X857662D01*
X857938Y554649D01*
G02X85935Y555002I0014124J-0026489D01*
G01X86535D01*
G02X868352Y552I0J-003002D01*
G01Y546D01*
G02X86535Y542998I-003002J0D01*
G01X85935D01*
G02X857938Y543351I0000004J0030019D01*
G01X857662Y543498D01*
X853008D01*
G02X849119Y545109I0000011J0055024D01*
G01X83402Y560209D01*
G03X829752Y558442I-001768J-0017675D01*
G01Y553688D01*
X829899Y553412D01*
G02X830252Y552I-0026489J-0014124D01*
G01Y546D01*
G02X82725Y542998I-003002J0D01*
G01X82125D01*
G02X818248Y546I0J003002D01*
G01Y552D01*
G02X818601Y553412I0030019J-0000004D01*
G01X818748Y553688D01*
Y557771D01*
X79592Y580599D01*
G03X791652Y578832I-001768J-0017675D01*
G01Y553688D01*
X791799Y553412D01*
G02X792152Y552I-0026489J-0014124D01*
G01Y546D01*
G02X78915Y542998I-003002J0D01*
G01X78315D01*
G02X780148Y546I0J003002D01*
G01Y552D01*
G02X780501Y553412I0030019J-0000004D01*
G01X780648Y553688D01*
Y579361D01*
X762161Y597848D01*
X662995D01*
Y595851D01*
X663654Y595497D01*
G02X663864Y595378I-0026069J-0048453D01*
G01X66416Y595202D01*
X6802D01*
G02X682935Y593437I0J-0030015D01*
G01X683268Y592702D01*
X690778D01*
X690953Y592754D01*
G02X69261Y592996I0016573J-005554D01*
G02Y581404I0J-005796D01*
G02X690953Y581646I0000003J005796D01*
G01X690778Y581698D01*
X683268D01*
X682935Y580963D01*
G02X6802Y579198I-002735J0012365D01*
G01X666D01*
G02X663013Y581903I0J0030017D01*
G02X660609Y583309I0014854J0052979D01*
G01X658771Y585148D01*
X655317D01*
X654984Y584413D01*
G02X652249Y582648I-002735J0012365D01*
G01X622249D01*
G02X619247Y58565I0J003002D01*
G01Y59565D01*
G02X619568Y597I0030019J-0000006D01*
G02X619247Y59835I0026809J0013506D01*
G01Y60835D01*
G02X619568Y6097I0030019J-0000006D01*
G02X619247Y61105I0026809J0013506D01*
G01Y621051D01*
G02X619567Y622399I0030021J-0000007D01*
G02X619247Y623747I0026821J0013487D01*
G01Y633749D01*
G02X619568Y635099I0030021J-0000007D01*
G02X619247Y636449I0026811J0013507D01*
G01Y646451D01*
G02X619567Y647799I0030021J-0000007D01*
G02X619247Y649147I0026821J0013487D01*
G01Y659149D01*
G02X619568Y660499I0030021J-0000007D01*
G02X619247Y661849I0026811J0013507D01*
G01Y671851D01*
G02X619567Y673199I0030021J-0000007D01*
G02X619247Y674547I0026821J0013487D01*
G01Y684548D01*
G02X619568Y685898I0030019J-0000006D01*
G02X619247Y687248I0026809J0013506D01*
G01Y697249D01*
G02X619568Y698599I0030021J-0000007D01*
G02X619247Y699949I0026811J0013507D01*
G01Y70995D01*
G02X619533Y711228I0030018J-0000008D01*
G02X619183Y71265I0027159J0014225D01*
G01Y72265D01*
G02X619532Y724071I0030674J0D01*
G02X619247Y725347I0027171J0012767D01*
G01Y735349D01*
G02X619568Y736699I0030021J-0000007D01*
G02X619247Y738049I0026811J0013507D01*
G01Y74805D01*
G02X622249Y751052I003002J0D01*
G01X652249D01*
G02X655251Y74805I0J-003002D01*
G01Y738049D01*
G02X65493Y736699I-0030021J0000007D01*
G02X655251Y735349I-0026811J-0013507D01*
G01Y725346D01*
G02X655176Y72468I-0030021J0000009D01*
G01X655144Y724543D01*
Y72366D01*
G02X655274Y723152I-0028946J-0010114D01*
G01X658221D01*
X669764Y734695D01*
X669683Y735307D01*
G02X669598Y736597I0097671J0012914D01*
G01Y7366D01*
G02X67945Y726748I009852J0D01*
G01X679447D01*
G02X678157Y726833I0000014J0098521D01*
G01X677545Y726914D01*
X665351Y71472D01*
G03X667118Y710452I0017675J-001768D01*
G01X669554D01*
X669608Y711645D01*
G02X67945Y721052I009842J-0004451D01*
G02X689302Y7112I0J-009852D01*
G02X687769Y705922I-0098524J0D01*
G03X688824Y704002I0010552J-00067D01*
G01X689871D01*
X692998Y707129D01*
Y788672D01*
G02X694609Y792561I0055024J-0000011D01*
G01X751429Y849381D01*
G02X755318Y850992I0038901J-0038914D01*
G01X845412D01*
G02X849301Y849381I-0000011J-0055024D01*
G01X864129Y834552D01*
X86535D01*
G02X868352Y83155I0J-003002D01*
G01Y82555D01*
G02X86535Y822548I-003002J0D01*
G01X85935D01*
G02X856348Y82555I0J003002D01*
G01Y826771D01*
X843131Y839988D01*
X826628D01*
G03X824861Y83572I0000005J-0025D01*
G01X826029Y834552D01*
X82725D01*
G02X830252Y83155I0J-003002D01*
G01Y82555D01*
G02X82725Y822548I-003002J0D01*
G01X82125D01*
G02X818248Y82555I0J003002D01*
G01Y826771D01*
X812651Y832368D01*
X792152D01*
Y82555D01*
G02X78915Y822548I-003002J0D01*
G01X783149D01*
G02X781879Y82283I0000003J0030022D01*
G01X781627Y822948D01*
X772659D01*
X720512Y770801D01*
Y759728D01*
G03X72478Y757961I0025J0000005D01*
G01X74501Y778192D01*
G02X748899Y779803I0038901J-0038914D01*
G01X776727D01*
G03X778918Y783506I-0000004J0024999D01*
G02X778548Y78495I0026328J001444D01*
G01Y79915D01*
G02X779678Y801497I0030023J0D01*
G01X780148Y801872D01*
Y80955D01*
G02X78315Y812552I003002J0D01*
G01X78915D01*
G02X792152Y80955I0J-003002D01*
G01Y802194D01*
X792858Y801852D01*
G02X794552Y79915I-0013079J-002702D01*
G01Y785803D01*
X801902D01*
G02X805791Y784192I-0000011J-0055024D01*
G01X811641Y778341D01*
G02X8123Y778881I0038064J-0039731D01*
G01X816648Y783229D01*
Y79915D01*
G02X817778Y801497I0030023J0D01*
G01X818248Y801872D01*
Y80955D01*
G02X82125Y812552I003002J0D01*
G01X82725D01*
G02X830252Y80955I0J-003002D01*
G01Y802194D01*
X830958Y801852D01*
G02X832652Y79915I-0013079J-002702D01*
G01Y782412D01*
X854748D01*
Y79915D01*
G02X855878Y801497I0030023J0D01*
G01X856348Y801872D01*
Y80955D01*
G02X85935Y812552I003002J0D01*
G01X86535D01*
G02X868352Y80955I0J-003002D01*
G01Y802194D01*
X869058Y801852D01*
G02X870752Y79915I-0013079J-002702D01*
G01Y78495D01*
G02X868254Y781991I-0030015J0D01*
G01Y78112D01*
G02X866557Y777145I-005504J0D01*
G01X862431Y773019D01*
G02X858542Y771408I-0038901J0038914D01*
G01X832939D01*
X827464Y765933D01*
X82745Y765437D01*
G02X826719Y762855I-0054999J0001626D01*
G01X826552Y762566D01*
Y761798D01*
G02X823152Y758398I-0034015J0000015D01*
G01X820748D01*
G02X8187Y759085I0000018J0034014D01*
G02X816652Y758398I-0020498J0027144D01*
G01X814248D01*
G02X8122Y759085I0000018J0034014D01*
G02X810152Y758398I-0020498J0027144D01*
G01X807748D01*
G02X8057Y759085I0000018J0034014D01*
G02X803652Y758398I-0020498J0027144D01*
G01X801248D01*
G02X797848Y761798I0000015J0034015D01*
G01Y762566D01*
X797681Y762855D01*
G02X796948Y765598I0047693J0027439D01*
G01Y768799D01*
X75118D01*
X729402Y747021D01*
G37*
G36*
G01X647698Y47095D02*
Y48195D01*
G02X6507Y484952I003002J0D01*
G01X6767D01*
G02X679702Y48195I0J-003002D01*
G01Y47095D01*
G02X6767Y467948I-003002J0D01*
G01X6507D01*
G02X647698Y47095I0J003002D01*
G37*
G36*
G01Y45095D02*
Y46195D01*
G02X6507Y464952I003002J0D01*
G01X6767D01*
G02X679702Y46195I0J-003002D01*
G01Y45095D01*
G02X6767Y447948I-003002J0D01*
G01X6507D01*
G02X647698Y45095I0J003002D01*
G37*
G36*
G01Y43095D02*
Y44195D01*
G02X6507Y444952I003002J0D01*
G01X6767D01*
G02X679702Y44195I0J-003002D01*
G01Y43095D01*
G02X6767Y427948I-003002J0D01*
G01X6507D01*
G02X647698Y43095I0J003002D01*
G37*
G36*
G01X377618Y24501D02*
Y26001D01*
G02X38062Y263012I003002J0D01*
G01X39662D01*
G02X399622Y26001I0J-003002D01*
G01Y24501D01*
G02X397504Y242141I-0030021J0D01*
G01X396622Y241869D01*
Y23368D01*
G02X380618I-008002J0D01*
G01Y241869D01*
X379736Y242141D01*
G02X377618Y24501I0008841J002869D01*
G37*
G36*
G01X402078Y388338D02*
Y40554D01*
G02X414082I006002J0D01*
G01Y401117D01*
X429684D01*
G02X432686Y398115I0J-003002D01*
G01Y378561D01*
G02X429684Y375559I-003002J0D01*
G01X405976D01*
G02X402974Y378561I0J003002D01*
G01Y385167D01*
X40282Y385448D01*
G02X402078Y388338I0052598J0028907D01*
G37*
G36*
G01X355448Y05657D02*
G02X35943Y060552I0039819J0000001D01*
G01X37467D01*
G02X378018Y058725I-0000003J-0039817D01*
G01X378387Y058152D01*
X381153D01*
X381343Y058342D01*
G02X384822Y059938I0038912J-0038924D01*
G02X386735Y060627I0019135J-0023126D01*
G01X399435D01*
G02X402437Y057625I0J-003002D01*
G01Y051275D01*
G02X399435Y048273I-003002J0D01*
G01X38679D01*
X386599Y048147D01*
G02X383286Y047148I-0031649J0045027D01*
G01X378387D01*
X378018Y046575D01*
G02X37467Y044748I-0033483J0021547D01*
G01X35943D01*
G02X355448Y04873I-0000001J0039819D01*
G01Y05657D01*
G37*
G36*
G01Y08577D02*
G02X35943Y089752I0039819J0000001D01*
G01X37467D01*
G02X378018Y087925I-0000003J-0039817D01*
G01X378387Y087352D01*
X383733D01*
Y095725D01*
G02X386735Y098727I003002J0D01*
G01X399435D01*
G02X402437Y095725I0J-003002D01*
G01Y089375D01*
G02X401887Y087643I-0030021J0D01*
G03Y084757I0020414J-001443D01*
G02X402437Y083025I-0024521J-001732D01*
G01Y076675D01*
G02X399435Y073673I-003002J0D01*
G01X386735D01*
G02X384819Y074364I0J0030018D01*
G02X381344Y075959I0004147J0054865D01*
G01X380956Y076348D01*
X378387D01*
X378018Y075775D01*
G02X37467Y073948I-0033483J0021547D01*
G01X35943D01*
G02X355448Y07793I-0000001J0039819D01*
G01Y08577D01*
G37*
G54D72*
X95Y04D03*
Y86D03*
G54D71*
X03Y04D03*
Y86D03*
G54D73*
X4699Y254D03*
G54D74*
X67945Y7874D03*
%LPD*%
G75*
G36*
G01X666748Y678602D02*
G03X662859Y676991I0000011J-0055024D01*
G01X658221Y672352D01*
X655274D01*
G03X655144Y67286I-0030246J-0005034D01*
G01Y673743D01*
X655176Y67388D01*
G03X655251Y674546I-0029271J0006669D01*
G01Y686746D01*
X669568D01*
X669602Y68553D01*
G03X670338Y682053I0098484J0002683D01*
G02X668026Y678602I-0023118J-0009511D01*
G01X666748D01*
G37*
G36*
G01X696041Y669209D02*
X70524Y678409D01*
G02X709508Y676642I001768J-0017675D01*
G01Y666489D01*
X696221Y653202D01*
X690874D01*
G02X688562Y656653I-0000002J0024999D01*
G03X689302Y6604I-0091122J0037461D01*
G03X688562Y664147I-0098522J0000009D01*
G02X690874Y667598I0023118J0009511D01*
G01X69215D01*
G03X696041Y669209I0000009J0055024D01*
G37*
G36*
G01Y694609D02*
X69635Y694919D01*
G02X700618Y693152I001768J-0017675D01*
G01Y689349D01*
X697383Y686114D01*
G02X693692Y686285I-0017676J0017679D01*
G03X691477Y687172I-0019243J-0015962D01*
G02X68881Y688874I-0002922J0024828D01*
G03X688562Y689547I-0093623J-0030678D01*
G02X690874Y692998I0023118J0009511D01*
G01X69215D01*
G03X696041Y694609I0000009J0055024D01*
G37*
G36*
G01X75694Y48085D02*
X771672D01*
X77472Y477802D01*
Y459768D01*
X777768Y45672D01*
X788436D01*
Y453687D01*
X786937D01*
X786707Y453782D01*
G03X7846Y454202I-0021083J-0050817D01*
G01X7789D01*
G03X775009Y452591I-0000009J-0055024D01*
G01X772099Y449681D01*
G03X771142Y448391I0038931J-0038881D01*
G01X771054Y448228D01*
X767608Y444782D01*
X747542D01*
X745764Y443004D01*
Y43132D01*
X734334D01*
Y448846D01*
X736686Y451198D01*
X7488D01*
G03X749683Y451331I-0000006J0030019D01*
G01X749862Y451386D01*
X753892D01*
X754908Y452402D01*
Y478818D01*
X75694Y48085D01*
G37*
G36*
G01Y7604D02*
X771672D01*
X77472Y757352D01*
Y739318D01*
X777768Y73627D01*
X788436D01*
Y733237D01*
X786937D01*
X786707Y733332D01*
G03X7846Y733752I-0021083J-0050817D01*
G01X7789D01*
G03X775009Y732141I-0000009J-0055024D01*
G01X772099Y729231D01*
G03X771142Y727941I0038931J-0038881D01*
G01X771054Y727778D01*
X767608Y724332D01*
X747542D01*
X745764Y722554D01*
Y71087D01*
X734334D01*
Y728396D01*
X736686Y730748D01*
X7488D01*
G03X749683Y730881I-0000006J0030019D01*
G01X749862Y730936D01*
X753892D01*
X754908Y731952D01*
Y758368D01*
X75694Y7604D01*
G37*
G36*
G01X803676Y44148D02*
X80393Y441226D01*
Y43005D01*
X798342Y424462D01*
Y410238D01*
X788436D01*
Y427256D01*
X794532Y433352D01*
Y441226D01*
X794786Y44148D01*
X797072D01*
X797326Y441226D01*
Y432336D01*
X79758Y432082D01*
X800628D01*
X800882Y432336D01*
Y441226D01*
X801136Y44148D01*
X803676D01*
G37*
G36*
G01Y72103D02*
X80393Y720776D01*
Y7096D01*
X798342Y704012D01*
Y689788D01*
X788436D01*
Y706806D01*
X794532Y712902D01*
Y720776D01*
X794786Y72103D01*
X797072D01*
X797326Y720776D01*
Y711886D01*
X79758Y711632D01*
X800628D01*
X800882Y711886D01*
Y720776D01*
X801136Y72103D01*
X803676D01*
G37*
G36*
G01X813836Y440972D02*
X814344Y44148D01*
X81663D01*
X816884Y441226D01*
Y439509D01*
X816803Y439295D01*
G03X816448Y43735I0051471J-0019443D01*
G01Y43108D01*
G03X816803Y429135I0055021J-0000007D01*
G01X816884Y428921D01*
Y410238D01*
X806978D01*
Y424462D01*
X807486Y42497D01*
Y427946D01*
X807932Y428392D01*
Y44148D01*
X81028D01*
X810534Y441226D01*
Y432336D01*
X810788Y432082D01*
X813582D01*
X813836Y432336D01*
Y440972D01*
G37*
G36*
G01Y720522D02*
X814344Y72103D01*
X81663D01*
X816884Y720776D01*
Y719059D01*
X816803Y718845D01*
G03X816448Y7169I0051471J-0019443D01*
G01Y71063D01*
G03X816803Y708685I0055021J-0000007D01*
G01X816884Y708471D01*
Y689788D01*
X806978D01*
Y704012D01*
X807486Y70452D01*
Y707496D01*
X807932Y707942D01*
Y72103D01*
X81028D01*
X810534Y720776D01*
Y711886D01*
X810788Y711632D01*
X813582D01*
X813836Y711886D01*
Y720522D01*
G37*
G36*
G01X847532Y418359D02*
Y434315D01*
G02X85104Y436603I0025001J0000001D01*
G03X85225Y436348I0012107J0027468D01*
G01X86725D01*
G03X870247Y439172I0J0030023D01*
G01X870317Y440348D01*
X874691D01*
X879648Y435391D01*
Y419402D01*
X87805D01*
G03X875048Y4164I0J-003002D01*
G01Y4064D01*
G03X875686Y40455I0030012J0D01*
G03X875315Y403937I0023643J-0018497D01*
G01X874982Y403202D01*
X869852D01*
Y4159D01*
G03X86685Y418902I-003002J0D01*
G01X85265D01*
G03X850236Y417685I0J-0030027D01*
G01X850181Y41761D01*
X849231Y41666D01*
X847532Y418359D01*
G37*
G36*
G01X826552Y441152D02*
G03X826541Y441419I-0034013J-0000064D01*
G02X829231Y444109I0024924J0001976D01*
G03X829498Y444098I0002734J0033903D01*
G01X830266D01*
X830555Y443931D01*
G03X8333Y443198I0027439J0047693D01*
G01X836528D01*
Y430318D01*
G02X83226Y428551I-0025J0000005D01*
G01X827452Y433359D01*
Y43735D01*
G03X826719Y440095I-0055023J0000011D01*
G01X826552Y440384D01*
Y441152D01*
G37*
G36*
G01X847532Y697909D02*
Y713865D01*
G02X85104Y716153I0025001J0000001D01*
G03X85225Y715898I0012107J0027468D01*
G01X86725D01*
G03X870247Y718722I0J0030023D01*
G01X870317Y719898D01*
X874691D01*
X879648Y714941D01*
Y698952D01*
X87805D01*
G03X875048Y69595I0J-003002D01*
G01Y68595D01*
G03X875686Y6841I0030012J0D01*
G03X875315Y683487I0023643J-0018497D01*
G01X874982Y682752D01*
X869852D01*
Y69545D01*
G03X86685Y698452I-003002J0D01*
G01X85265D01*
G03X850236Y697235I0J-0030027D01*
G01X850181Y69716D01*
X849231Y69621D01*
X847532Y697909D01*
G37*
G36*
G01X826552Y720702D02*
G03X826541Y720969I-0034013J-0000064D01*
G02X829231Y723659I0024925J0001975D01*
G03X829498Y723648I0002734J0033903D01*
G01X830266D01*
X830555Y723481D01*
G03X8333Y722748I0027439J0047693D01*
G01X836528D01*
Y71429D01*
G02X832957Y712032I-0024998J0000007D01*
G03X8306Y712562I-0023561J-0049722D01*
G01X827799D01*
X827452Y712909D01*
Y7169D01*
G03X826719Y719645I-0055023J0000011D01*
G01X826552Y719934D01*
Y720702D01*
G37*
G54D10*
X03Y04D03*
Y86D03*
X95Y04D03*
Y86D03*
G54D20*
X11305Y8588D03*
Y843D03*
X44704Y3889D03*
Y3731D03*
G54D11*
X01526Y08509D03*
Y20701D03*
Y30226D03*
X01399Y37084D03*
X01907Y52705D03*
X02161Y60452D03*
X02288Y6858D03*
X02034Y75946D03*
X02288Y81788D03*
X03812Y15113D03*
X04066Y24765D03*
Y34925D03*
X08892Y01651D03*
X09017Y34925D03*
Y3683D03*
Y38481D03*
X08384Y45593D03*
X09019Y49149D03*
X06479Y56007D03*
X06606Y63119D03*
X06352Y7112D03*
X07368Y79756D03*
X08384Y88773D03*
X10543Y08763D03*
X09527Y13081D03*
X0939Y53346D03*
X11295D03*
X0939Y54616D03*
Y55886D03*
X11295Y54616D03*
Y55886D03*
X0939Y57156D03*
Y58426D03*
X11295D03*
Y57156D03*
X0939Y62236D03*
Y60966D03*
Y59696D03*
X11295D03*
Y60966D03*
Y62236D03*
X14226Y46863D03*
X132Y53346D03*
Y54616D03*
Y55886D03*
Y58426D03*
Y57156D03*
Y59696D03*
Y60966D03*
Y62236D03*
X14607Y67691D03*
X16639Y1143D03*
X15877Y18542D03*
X16131Y24257D03*
X14986Y34798D03*
Y36322D03*
Y38481D03*
X15105Y53346D03*
X1701D03*
X15105Y54616D03*
Y55886D03*
X1701Y54616D03*
Y55886D03*
X15105Y58426D03*
Y57156D03*
X1701Y58426D03*
Y57156D03*
X15105Y59696D03*
Y60966D03*
Y62236D03*
X1701Y59696D03*
Y60966D03*
Y62236D03*
X22989Y64897D03*
X23497Y83312D03*
X22862Y88392D03*
X2592Y29839D03*
Y28569D03*
Y27299D03*
Y31109D03*
Y32379D03*
Y33649D03*
Y34919D03*
Y36189D03*
X26164Y63881D03*
X27825Y29839D03*
Y28569D03*
Y27299D03*
Y31109D03*
Y32379D03*
Y33649D03*
Y34919D03*
Y36189D03*
X27561Y67437D03*
X27307Y73152D03*
X31635Y29839D03*
Y28569D03*
X2973Y29839D03*
Y28569D03*
X31635Y27299D03*
X2973D03*
X31635Y31109D03*
Y32379D03*
X2973Y31109D03*
Y32379D03*
X31635Y33649D03*
X2973D03*
X31635Y34919D03*
X2973D03*
X31635Y36189D03*
X2973D03*
X30101Y42291D03*
X31117Y48387D03*
X30101Y85471D03*
X34419Y17653D03*
X3354Y28569D03*
Y29839D03*
Y27299D03*
X34925Y27305D03*
X3354Y32379D03*
Y31109D03*
X34925Y3302D03*
X3354Y33649D03*
Y34919D03*
Y36189D03*
X34925Y4191D03*
X3429Y3937D03*
X34925Y51435D03*
Y56515D03*
X34927Y60579D03*
X35308Y72357D03*
X34673Y88011D03*
X37848Y47498D03*
X35816Y65786D03*
X3683Y7239D03*
X35943Y76835D03*
X37467Y74643D03*
Y80137D03*
X40134Y18415D03*
X38862Y23368D03*
X40808Y40554D03*
X4064Y67945D03*
X4094Y70785D03*
X3861Y74643D03*
X39628Y74645D03*
X41277Y80645D03*
X40642Y88392D03*
X43815Y1651D03*
X4318Y18415D03*
X41658Y23368D03*
X42926Y30099D03*
X43436Y61341D03*
X42801Y70452D03*
X43309Y8382D03*
X45706Y1116D03*
X45595Y17129D03*
X45085Y3048D03*
X44704Y40132D03*
X46865Y57277D03*
X44579D03*
X48897Y25146D03*
X48262Y30353D03*
X49913Y49657D03*
X49024Y54864D03*
X49913Y61562D03*
X48135Y62705D03*
Y65245D03*
Y67785D03*
Y70325D03*
X52961Y49403D03*
X51818Y54991D03*
X51945Y6461D03*
X50675Y62705D03*
X55Y10391D03*
X53215Y14859D03*
X54866Y43482D03*
X55755Y60165D03*
X53215Y62705D03*
X54485Y6461D03*
X55755Y62705D03*
X57279Y13065D03*
X58803Y14605D03*
X56517Y2921D03*
X56771Y34925D03*
Y43482D03*
X57533Y54737D03*
X58295Y60165D03*
Y65245D03*
Y62705D03*
X56771Y66134D03*
X58295Y67785D03*
Y70325D03*
X60575Y23981D03*
X6147Y2667D03*
Y35735D03*
Y3891D03*
X62613Y0862D03*
X63375Y12446D03*
X64518Y14732D03*
X62486Y16637D03*
X6248Y23854D03*
X62232Y3175D03*
X63375Y3764D03*
Y45895D03*
X66804Y0735D03*
X65153Y17764D03*
X660574Y243834D03*
X6731Y55626D03*
X6528Y77597D03*
X66169Y82136D03*
X67439Y85598D03*
X6528Y88105D03*
X70614Y0481D03*
X68074Y09779D03*
X67947Y12319D03*
X68455Y15351D03*
X68582Y20177D03*
X69465Y34819D03*
X69725Y47005D03*
X68455Y49545D03*
X69261Y5872D03*
X72773Y0989D03*
X70868Y11557D03*
X72392Y12811D03*
X72519Y21701D03*
X7137Y34819D03*
Y39004D03*
X73154Y77597D03*
X729Y88105D03*
X76456Y0481D03*
X7613Y47776D03*
Y75731D03*
X75186Y79375D03*
X78986Y1369D03*
X77345Y27035D03*
X77218Y34163D03*
X78615Y44021D03*
X76964Y47704D03*
X78742Y48339D03*
X7798Y65245D03*
X7925Y67785D03*
X78742Y71976D03*
Y76294D03*
X76964Y75659D03*
X76785Y80485D03*
X7671Y88105D03*
X79504Y07731D03*
X79885Y10541D03*
X81409Y28829D03*
X8052Y381D03*
X79631Y4491D03*
Y4745D03*
X82171Y4491D03*
Y4745D03*
X80895Y4617D03*
X80595Y5253D03*
X79756Y5715D03*
X81536Y64864D03*
X80895Y74125D03*
X79631Y72865D03*
X82171D03*
X79631Y75405D03*
X82171D03*
X80595Y80485D03*
X80266Y8255D03*
X8052Y88105D03*
X85092Y0481D03*
X84838Y13192D03*
X83695Y25781D03*
X84965Y35052D03*
X82425Y41402D03*
X83187Y43561D03*
X8306Y48339D03*
X84405Y5253D03*
X83693Y55245D03*
X82679Y67404D03*
X82552Y6985D03*
X83314Y71628D03*
X8306Y76294D03*
X84405Y80485D03*
X84965Y88105D03*
X87632Y23749D03*
X86997Y25781D03*
X87214Y4246D03*
X88013Y45593D03*
X87214Y70415D03*
X89029Y09636D03*
X90553Y19288D03*
X89791Y31496D03*
X90172Y50244D03*
X9017Y48133D03*
X88521Y55959D03*
X90553Y66388D03*
X90045Y70325D03*
X88521Y73373D03*
X88775Y77945D03*
X88267Y82042D03*
X9068Y8366D03*
X88775Y88105D03*
X93855Y2513D03*
X92712Y61435D03*
X92077Y68293D03*
Y75311D03*
X92585Y88105D03*
X96776Y32258D03*
X97284Y41402D03*
X97411Y51181D03*
X97155Y635D03*
X9779Y6985D03*
X97155Y75565D03*
Y80645D03*
G54D12*
X0305Y4191D03*
Y4699D03*
G54D21*
X14105Y06985D03*
X21205D03*
G54D30*
X393085Y05445D03*
Y06715D03*
Y07985D03*
Y09255D03*
X442615Y05445D03*
Y06715D03*
Y09255D03*
Y07985D03*
X695285Y09245D03*
Y10515D03*
Y11785D03*
Y13055D03*
X744815Y09245D03*
Y10515D03*
Y11785D03*
Y13055D03*
G54D13*
X12067Y1905D03*
X21973D03*
X20957Y70485D03*
X30863D03*
G54D22*
X1912Y3005D03*
Y2835D03*
Y3175D03*
Y3515D03*
Y3345D03*
X2381Y54385D03*
Y56085D03*
Y57785D03*
Y59485D03*
Y61185D03*
G54D40*
X475Y0715D03*
Y1007D03*
G54D31*
X38862Y31341D03*
Y32921D03*
G54D50*
X60575Y0734D03*
Y1115D03*
G54D23*
X1777Y37465D03*
X1627D03*
X1777Y70485D03*
X1627D03*
X2516Y1905D03*
X2666D03*
X2516Y5207D03*
X2666D03*
G54D14*
X1194Y302D03*
Y3711D03*
X3099Y52425D03*
Y59335D03*
G54D41*
X47494Y13414D03*
Y17014D03*
G54D32*
X40808Y33083D03*
Y388338D03*
X42758Y33083D03*
X42108D03*
X41458D03*
Y388338D03*
X42108D03*
X42758D03*
G54D42*
X4699Y254D03*
G54D33*
X38735Y67945D03*
Y70485D03*
G54D24*
X17655Y409D03*
Y48D03*
Y79D03*
Y861D03*
X2718Y409D03*
Y48D03*
G54D60*
X801584Y302D03*
X829016D03*
G54D51*
X6756Y243834D03*
Y271266D03*
X701Y243834D03*
Y271266D03*
X8534Y243834D03*
Y271266D03*
G54D15*
X1321Y57785D03*
X2972Y3175D03*
G54D70*
G01X1146Y6477D02*
X12184D01*
X1219Y64776D01*
X18915D01*
X19804Y63887D01*
Y60712D01*
X21031Y59485D01*
X2381D01*
G01X11305Y6858D02*
Y66449D01*
X1146Y66294D01*
Y6477D01*
G01X11305Y843D02*
Y8181D01*
G01X1912Y3005D02*
X21899D01*
X23126Y28823D01*
Y25648D01*
X24015Y24759D01*
X30365D01*
X3147Y23654D01*
Y22225D01*
G01X29825Y06985D02*
X27335D01*
G01X31625Y1651D02*
Y19276D01*
X3147Y19431D01*
Y22225D01*
G01X6147Y17764D02*
X63641D01*
X65775Y1563D01*
Y15605D01*
G01X4089Y74645D02*
X39628D01*
G01X42795D02*
X4089D01*
G01X45335Y199D02*
X45699D01*
X47109Y2131D01*
X497546D01*
G01X475Y0715D02*
Y06086D01*
X47487Y06073D01*
Y05334D01*
G01X69484Y0735D02*
Y06363D01*
X67312Y04191D01*
X47881D01*
X47627Y04445D01*
Y04455D01*
X47487Y04595D01*
Y05334D01*
G01X5232Y2113D02*
X506966D01*
X505166Y2131D01*
X497546D01*
G01X5232Y2113D02*
X5269D01*
X533597Y217997D01*
Y227347D01*
X5398Y23355D01*
X5486D01*
G01X570952Y214624D02*
X565618D01*
X562192Y21805D01*
X5486D01*
G01X570952Y214624D02*
X589748D01*
G01X60575Y2117D02*
X59836D01*
X595436Y214624D01*
X589748D01*
G01X60575Y2117D02*
X6248D01*
G01D02*
X63391D01*
X63531Y2131D01*
X64245D01*
G01X65775Y15605D02*
Y137D01*
G01X65795Y2131D02*
X69465D01*
X7264Y18135D01*
G01X6637Y37645D02*
X68751D01*
X68811Y37585D01*
X69465D01*
G01X695285Y09245D02*
Y081335D01*
X69484Y08089D01*
Y0735D01*
G01X7344Y24485D02*
X713065D01*
X712049Y243834D01*
X701D01*
G01X69465Y36085D02*
Y34819D01*
G01Y37585D02*
X7137D01*
G01Y36085D02*
Y34819D01*
G01Y37585D02*
Y39004D01*
G01X7613Y4617D02*
Y47776D01*
G01X7423Y69045D02*
Y67591D01*
G01X7613Y74125D02*
Y75731D01*
G01X80595Y5125D02*
Y5253D01*
G01Y79205D02*
Y80485D01*
G01X84405Y5125D02*
Y5253D01*
G01Y79205D02*
Y80485D01*
G54D61*
X79595Y43735D03*
X80245D03*
X80895D03*
X81545D03*
X82195D03*
Y48605D03*
X81545D03*
X80895D03*
X80245D03*
X79595D03*
Y7169D03*
X80245D03*
X80895D03*
X81545D03*
X82195D03*
Y7656D03*
X81545D03*
X80895D03*
X80245D03*
X79595D03*
G54D16*
X1146Y6477D03*
X0988D03*
G54D52*
X6627Y33645D03*
G54D34*
X3907Y7239D03*
X4094D03*
X76785Y5125D03*
Y79205D03*
X79325Y41725D03*
X78655Y5125D03*
X79325Y6968D03*
X78655Y79205D03*
X81195Y41725D03*
X80595Y5125D03*
X82465D03*
X81195Y6968D03*
X80595Y79205D03*
X82465D03*
X84405Y5125D03*
Y79205D03*
X86275Y5125D03*
Y79205D03*
G54D43*
X45725Y59065D03*
Y60335D03*
Y61605D03*
Y654148D03*
Y628748D03*
Y64145D03*
Y66685D03*
Y679548D03*
Y692248D03*
Y70495D03*
Y71765D03*
Y730348D03*
Y74305D03*
Y755748D03*
X637249Y59065D03*
Y61605D03*
Y60335D03*
Y654148D03*
Y64145D03*
Y628748D03*
Y679548D03*
Y66685D03*
Y70495D03*
Y692248D03*
Y74305D03*
Y730348D03*
Y71765D03*
Y755748D03*
G54D25*
X25755Y06985D03*
X27335D03*
X3147Y22225D03*
X3305D03*
G54D17*
X11305Y6858D03*
X31625Y1651D03*
X5486Y15595D03*
X7264Y18135D03*
G54D53*
X67945Y6604D03*
Y6858D03*
Y7112D03*
Y7366D03*
Y762D03*
G54D44*
X497546Y2131D03*
X4851Y2004D03*
Y2258D03*
G54D35*
X4089Y74645D03*
Y76145D03*
X42795Y7147D03*
Y7297D03*
Y74645D03*
Y76145D03*
X69465Y36085D03*
Y37585D03*
X7137Y36085D03*
Y37585D03*
G54D62*
X80895Y4617D03*
Y74125D03*
G54D26*
X29825Y06985D03*
X33425D03*
X74015Y302D03*
X77615D03*
G54D27*
X36705Y05265D03*
Y08185D03*
X41529Y25601D03*
Y28521D03*
X44704Y32713D03*
Y35633D03*
X50034Y13764D03*
Y16684D03*
X5232Y2113D03*
Y2405D03*
X84705Y15415D03*
Y18335D03*
G54D36*
X44465Y1116D03*
X42915D03*
X49037Y05334D03*
X47487D03*
X5345Y0734D03*
X55D03*
X5345Y09245D03*
X55D03*
X64245Y2131D03*
X67934Y0735D03*
X65775Y1116D03*
X67325D03*
X65775Y15605D03*
X67325D03*
X65775Y137D03*
X67325D03*
X65795Y2131D03*
X69484Y0735D03*
X7631Y1369D03*
X7786D03*
X82025Y10515D03*
X83575D03*
G54D54*
X67945Y7874D03*
G54D18*
X11305Y7112D03*
Y7366D03*
X31625Y1143D03*
Y1397D03*
X574Y15595D03*
X5994D03*
X7518Y18135D03*
X7772D03*
G54D45*
X5097Y35645D03*
Y33645D03*
Y37645D03*
Y41645D03*
Y39645D03*
Y43645D03*
Y45645D03*
Y47645D03*
X6637Y35645D03*
Y37645D03*
Y39645D03*
Y41645D03*
Y43645D03*
Y45645D03*
Y47645D03*
G54D63*
X85975Y44585D03*
Y46485D03*
Y7254D03*
Y7444D03*
G54D64*
X9322Y2259D03*
Y2513D03*
Y2767D03*
G54D37*
X43565Y19825D03*
Y21375D03*
X45335Y2145D03*
Y199D03*
X5486Y23355D03*
Y21805D03*
X60575Y2117D03*
Y2272D03*
X6248Y2117D03*
Y2272D03*
X7645Y11925D03*
Y10375D03*
X78355D03*
Y11925D03*
X82165Y1228D03*
Y1383D03*
Y15455D03*
Y17005D03*
G54D28*
X38735Y4548D03*
X93305Y1108D03*
X94575Y3444D03*
Y466D03*
Y61395D03*
Y73555D03*
G54D19*
X11305Y7821D03*
Y8181D03*
X38862Y25251D03*
Y28851D03*
X508Y0709D03*
Y1069D03*
G54D46*
X502797Y575649D03*
X4901D03*
X528197D03*
X5155D03*
X5536D03*
X540897D03*
X579D03*
X5663D03*
X604397D03*
X5917D03*
G54D55*
X7344Y24485D03*
Y27025D03*
X82Y24485D03*
Y27025D03*
G54D65*
G01X36705Y05265D02*
X383435D01*
X385235Y05445D01*
X393085D01*
G01Y07985D02*
X385235D01*
X383235Y08185D01*
X36705D01*
G01X38735Y67945D02*
X3739D01*
X37055Y6761D01*
X36195D01*
G01X38862Y28851D02*
Y31341D01*
G01X40808Y33083D02*
X40132D01*
X3997Y32921D01*
X38862D01*
G01X38735Y4548D02*
X42305Y4191D01*
X46055D01*
X46355Y4161D01*
Y381D01*
X45565Y3731D01*
X44704D01*
G01X38735Y4548D02*
Y61976D01*
X43444Y66685D01*
X45725D01*
G01X5097Y35645D02*
X48895D01*
X47625Y36915D01*
Y4699D01*
X41021Y53594D01*
Y61849D01*
X43317Y64145D01*
X45725D01*
G01X38735Y67945D02*
X40015Y69225D01*
X43436D01*
X434362Y692248D01*
X45725D01*
G01X4094Y7239D02*
Y70785D01*
G01Y7239D02*
X4159D01*
X4217Y7297D01*
X42795D01*
G01X43565Y21375D02*
X4359D01*
G01D02*
Y22635D01*
X4403Y23075D01*
X48015D01*
X4851Y2258D01*
G01X4359Y21375D02*
X442D01*
X44275Y2145D01*
X45335D01*
G01X41458Y33083D02*
Y29232D01*
X41529Y29161D01*
Y28521D01*
G01D02*
X43869D01*
X4445Y2794D01*
G01X42545Y3556D02*
X42108Y35123D01*
Y33083D01*
G01X43694Y35633D02*
X43621Y3556D01*
X42545D01*
G01X43694Y35633D02*
X42618D01*
X42545Y3556D01*
G01X44704Y35633D02*
X43694D01*
G01X45725Y628748D02*
X440712D01*
X44071Y62875D01*
X43317D01*
X42164Y61722D01*
Y54356D01*
X48895Y47625D01*
Y40022D01*
X49272Y39645D01*
X5097D01*
G01Y41645D02*
X53189D01*
X53977Y42433D01*
Y50165D01*
X52072Y5207D01*
X46355D01*
X43309Y55116D01*
Y59911D01*
X43733Y60335D01*
X45725D01*
G01Y730348D02*
X434098D01*
X43345Y7297D01*
X42795D01*
G01X44465Y1116D02*
Y102365D01*
X442615Y10033D01*
Y09255D01*
G01X44465Y1116D02*
X45706D01*
G01X44704Y3731D02*
Y35633D01*
G01X45725Y59065D02*
Y54605D01*
X47625Y52705D01*
X5334D01*
X5588Y50165D01*
Y40691D01*
X52834Y37645D01*
X5097D01*
G01X6637Y39645D02*
X63225D01*
X5715Y4572D01*
Y508D01*
X5461Y5334D01*
X48895D01*
X47881Y54354D01*
Y59911D01*
X48135Y60165D01*
Y61181D01*
X47711Y61605D01*
X45725D01*
G01X508Y0709D02*
Y0619D01*
X49944Y05334D01*
X49037D01*
G01X6637Y41645D02*
X63782D01*
X59055Y46372D01*
Y508D01*
X5588Y53975D01*
X508D01*
X502797Y544953D01*
Y575649D01*
G01X5345Y0734D02*
Y06353D01*
X5385Y05953D01*
X59188D01*
X60575Y0734D01*
G01X5345D02*
Y09245D01*
G01X55Y0734D02*
X58035D01*
G01X67325Y137D02*
Y13065D01*
X66817Y12557D01*
X65153D01*
X60962Y16748D01*
X56013D01*
X5486Y15595D01*
G01X58035Y1115D02*
X57279Y10394D01*
Y09249D01*
X58035Y08493D01*
Y0734D01*
G01Y1115D02*
X59422Y09763D01*
X66677D01*
X67325Y10411D01*
Y1116D01*
G01X574Y15595D02*
Y14325D01*
X60575Y1115D01*
G01X65775Y1116D02*
X615376D01*
X615276Y1115D01*
X60575D01*
G01X6756Y271266D02*
Y28825D01*
X698499Y311149D01*
X717549D01*
X7366Y3302D01*
Y38735D01*
X71755Y4064D01*
Y50165D01*
X6858Y5334D01*
X60325D01*
X5917Y54495D01*
Y575649D01*
G01X604397D02*
Y5491D01*
X607397Y5461D01*
X70485D01*
X756199Y494751D01*
X799414D01*
X80245Y491715D01*
Y48605D01*
G01X637249Y59065D02*
X66105D01*
X6645Y5872D01*
X6731D01*
G01X637249Y61605D02*
X76825D01*
X82425Y56005D01*
Y549D01*
G01X637249Y60335D02*
X76444D01*
X78615Y58164D01*
Y549D01*
G01X637249Y628748D02*
X773262D01*
X85301Y549D01*
X86235D01*
G01X637249Y64145D02*
X6603D01*
X66675Y635D01*
X70485D01*
X7239Y65405D01*
Y7493D01*
X748901Y774301D01*
X799414D01*
X80245Y771265D01*
Y7656D01*
G01X82425Y82855D02*
X81493Y83787D01*
X76421D01*
X70612Y77978D01*
Y68707D01*
X69215Y6731D01*
X66675D01*
X6605Y66685D01*
X637249D01*
G01Y654148D02*
X666652D01*
X6731Y6477D01*
X6985D01*
X71501Y66421D01*
Y77308D01*
X77038Y82845D01*
X78155D01*
X78165Y82855D01*
X78615D01*
G01X86235D02*
X84541Y84549D01*
X75532D01*
X6985Y78867D01*
Y70485D01*
X69215Y6985D01*
X6731D01*
X666848Y692248D01*
X637249D01*
G01Y70495D02*
X6732D01*
X67945Y7112D01*
G01X637249Y71765D02*
X6605D01*
X67945Y7366D01*
G01X67325Y1116D02*
X67935D01*
X6856Y11785D01*
X695285D01*
G01X67325Y137D02*
X67937D01*
X68582Y13055D01*
X695285D01*
G01X6756Y271266D02*
X701D01*
G01X6731Y5872D02*
X69261D01*
G01X695285Y10515D02*
X72001D01*
X73271Y11785D01*
X744815D01*
G01Y09245D02*
X8078D01*
X82025Y1049D01*
Y10515D01*
G01X744815D02*
X75675D01*
X75815Y10375D01*
X7645D01*
G01X744815Y11785D02*
X75675D01*
X75815Y11925D01*
X7645D01*
G01X7518Y18135D02*
X78345Y1497D01*
X79504D01*
X79885Y14589D01*
Y12557D01*
X79253Y11925D01*
X78355D01*
G01X7613Y4109D02*
Y42399D01*
X76355Y42624D01*
Y4363D01*
G01X7846Y4487D02*
X7789D01*
X77599Y44579D01*
Y44009D01*
X7722Y4363D01*
X76355D01*
G01X7613Y4617D02*
X7693D01*
X7758Y4552D01*
X7846D01*
G01X7613Y69045D02*
Y70354D01*
X76355Y70579D01*
Y71585D01*
G01X7846Y72825D02*
X7789D01*
X77599Y72534D01*
Y71964D01*
X7722Y71585D01*
X76355D01*
G01X7846Y73475D02*
X7758D01*
X7693Y74125D01*
X7613D01*
G01X7645Y10375D02*
X78355D01*
G01X801584Y302D02*
X77615D01*
G01X7846Y4747D02*
Y48057D01*
X78742Y48339D01*
G01D02*
X79008Y48605D01*
X79595D01*
G01X78655Y5125D02*
Y503783D01*
X789582Y500751D01*
X8019D01*
X80895Y493701D01*
Y48605D01*
G01X78655Y5125D02*
Y5221D01*
X78615Y5225D01*
Y527D01*
G01X78742Y76294D02*
X79008Y7656D01*
X79595D01*
G01X7846Y75425D02*
Y76012D01*
X78742Y76294D01*
G01X78655Y79205D02*
Y783333D01*
X789582Y780301D01*
X8019D01*
X80895Y773251D01*
Y7656D01*
G01X78655Y79205D02*
Y80165D01*
X78615Y80205D01*
Y80655D01*
G01X82165Y1228D02*
Y1129D01*
X82025Y1115D01*
Y10515D01*
G01X82165Y15455D02*
Y1383D01*
G01X84705Y15415D02*
X8284D01*
X828Y15455D01*
X82165D01*
G01X9322Y2259D02*
X80788D01*
X79885Y23493D01*
Y2639D01*
X8052Y27025D01*
X82D01*
G01X829016Y302D02*
Y288166D01*
X82Y27915D01*
Y27025D01*
G01X82195Y43735D02*
Y43108D01*
X83441Y41862D01*
Y40973D01*
X84694Y3972D01*
X85975D01*
G01X82195Y48605D02*
Y48865D01*
X8286Y4953D01*
X85727D01*
X86275Y50078D01*
Y5125D01*
G01X82465D02*
Y5039D01*
X81557Y49482D01*
X81545D01*
Y48605D01*
G01X85975Y67675D02*
X84694D01*
X83441Y68928D01*
Y70325D01*
X8306Y70706D01*
X82552D01*
X82195Y71063D01*
Y7169D01*
G01X82465Y79205D02*
Y78345D01*
X81557Y77437D01*
X81545D01*
Y7656D01*
G01X82195D02*
Y7682D01*
X83066Y77691D01*
X85854D01*
X86275Y78112D01*
Y79205D01*
G01X93305Y1616D02*
X922239Y150789D01*
X886011D01*
X88265Y15415D01*
X84705D01*
G01X85975Y4109D02*
X84721D01*
X84203Y41608D01*
Y44656D01*
X83989Y4487D01*
X8333D01*
G01X85975Y44585D02*
X851226D01*
X841876Y4552D01*
X8333D01*
G01Y4747D02*
Y48069D01*
X8306Y48339D01*
G01X88515Y48125D02*
X86783D01*
X86243Y47585D01*
X850386D01*
X842736Y4682D01*
X8333D01*
G01Y4617D02*
X8476D01*
X85075Y46485D01*
X85975D01*
G01X82425Y527D02*
Y5225D01*
X82465Y5221D01*
Y5125D01*
G01X85975Y69045D02*
X84721D01*
X84203Y69563D01*
Y72611D01*
X83989Y72825D01*
X8333D01*
G01X85975Y7254D02*
X851226D01*
X841876Y73475D01*
X8333D01*
G01Y74125D02*
X8476D01*
X85075Y7444D01*
X85975D01*
G01X8306Y76294D02*
X8333Y76024D01*
Y75425D01*
G01X88515Y7608D02*
X85386D01*
X84081Y74775D01*
X8333D01*
G01X82425Y80655D02*
Y80205D01*
X82465Y80165D01*
Y79205D01*
G01X88515Y3977D02*
X86885D01*
X86835Y3972D01*
X85975D01*
G01Y44585D02*
X87697D01*
X88515Y43767D01*
Y4114D01*
G01X85975Y46485D02*
X87385D01*
X87655Y46755D01*
X88515D01*
G01X86235Y527D02*
Y5225D01*
X86275Y5221D01*
Y5125D01*
G01X88515Y67725D02*
X86885D01*
X86835Y67675D01*
X85975D01*
G01Y7254D02*
X87697D01*
X88515Y71722D01*
Y69095D01*
G01X85975Y7444D02*
X87385D01*
X87655Y7471D01*
X88515D01*
G01X86235Y80655D02*
Y80205D01*
X86275Y80165D01*
Y79205D01*
G01X88515Y3977D02*
Y3912D01*
X88646Y38989D01*
Y384809D01*
X896619Y37465D01*
X9155D01*
X94575Y3444D01*
G01X88515Y4114D02*
X92955D01*
X94575Y3952D01*
G01Y466D02*
X91233D01*
X91078Y46755D01*
X88515D01*
G01Y48125D02*
Y48775D01*
X89143Y49403D01*
X92298D01*
X94575Y5168D01*
G01Y61395D02*
X919951Y639749D01*
Y665949D01*
X90865Y67725D01*
X88515D01*
G01X94575Y66475D02*
Y67995D01*
X93475Y69095D01*
X88515D01*
G01X94575Y73555D02*
X916288D01*
X904738Y7471D01*
X88515D01*
G01Y7608D02*
X9202D01*
X94575Y78635D01*
G54D38*
X4445Y2794D03*
X4699Y3048D03*
G54D56*
X7613Y4109D03*
X7423D03*
Y4617D03*
X7613D03*
Y69045D03*
X7423D03*
Y74125D03*
X7613D03*
G54D29*
X36195Y6574D03*
Y6761D03*
X6731Y5685D03*
Y5872D03*
X88515Y4114D03*
Y3977D03*
X85975Y3972D03*
Y4109D03*
Y4246D03*
X88515Y48125D03*
Y46755D03*
Y67725D03*
X85975Y67675D03*
X88515Y69095D03*
X85975Y70415D03*
Y69045D03*
X88515Y7608D03*
Y7471D03*
G54D47*
X536198Y683848D03*
G54D66*
G01X14861Y80264D02*
X13591Y81534D01*
Y85344D01*
X13055Y8588D01*
X11305D01*
G01X40808Y388338D02*
Y40554D01*
G01X3907Y7239D02*
Y7082D01*
X38735Y70485D01*
G01X39628Y74645D02*
X3907Y74087D01*
G01D02*
Y7239D01*
G01X43565Y19825D02*
Y188D01*
X4318Y18415D01*
G01X42801Y70452D02*
X42795Y70458D01*
Y7147D01*
G01X47487Y05334D02*
X46786D01*
X46675Y05445D01*
X442615D01*
G01X44704Y3889D02*
Y40132D01*
G01X55Y09245D02*
Y10391D01*
G01X6756Y243834D02*
X660574D01*
G01X6731Y5685D02*
Y55626D01*
G01X744815Y13055D02*
X75675D01*
X756835Y130635D01*
X757085D01*
X7631Y13665D01*
Y1369D01*
G01X7613Y4617D02*
Y45092D01*
X75694Y44656D01*
X7417D01*
X74005Y44491D01*
Y4363D01*
G01X7423Y74125D02*
Y75719D01*
G01X74005Y71585D02*
Y72446D01*
X7417Y72611D01*
X75694D01*
X7613Y73047D01*
Y74125D01*
G01X7786Y1369D02*
X78986D01*
G01X76785Y5125D02*
Y5253D01*
G01Y79205D02*
Y80485D01*
G01X85975Y4246D02*
X87214D01*
G01X85975Y70415D02*
X87214D01*
G54D39*
X43815Y4548D03*
X93305Y1616D03*
X94575Y3952D03*
Y5168D03*
Y66475D03*
Y78635D03*
G54D48*
X58035Y0734D03*
Y1115D03*
G54D57*
X76355Y4363D03*
X74005D03*
X76355Y71585D03*
X74005D03*
G54D67*
G01X45725Y679548D02*
X419198D01*
X36195Y6223D01*
Y1651D01*
X37735Y1497D01*
X51675D01*
X54469Y17764D01*
X6147D01*
G54D58*
X7846Y4747D03*
Y4682D03*
Y4617D03*
Y4552D03*
Y4487D03*
Y73475D03*
Y72825D03*
Y75425D03*
Y74775D03*
Y74125D03*
X8333Y4747D03*
Y4487D03*
Y4552D03*
Y4617D03*
Y4682D03*
Y72825D03*
Y73475D03*
Y75425D03*
Y74125D03*
Y74775D03*
G54D49*
X570952Y214624D03*
X589748D03*
X58035Y236976D03*
G54D68*
G01X38862Y25251D02*
Y23368D01*
G54D59*
X78615Y527D03*
Y549D03*
Y80655D03*
Y82855D03*
X82425Y527D03*
Y549D03*
Y80655D03*
Y82855D03*
X86235Y527D03*
Y549D03*
Y80655D03*
Y82855D03*
G54D69*
G01X8534Y243834D02*
X837966D01*
X83695Y24485D01*
X82D01*
M02*
