M48
METRIC,LZ
T01C.3048
T02C.5
T03C.71
T04C.7112
T05C.714
T06C1.02
T07C1.07
T08C1.2192
T09C1.27
T10C1.3
T11C3.1999
;LEADER: 12 
;HEADER: 
;CODE  : ASCII 
;FILE  : MACHLORA_02_03Jul25_02-1-2.drl for board C:/Users/hungt/Downloads/Compressed/LoRa-based Monitoring System Project/gerber/#Taaaaas26140.tmp ... layers TOP and BOTTOM
;T01 Holesize 1. = 0.304800 Tolerance = +0.000000/-0.000000 PLATED MM Quantity = 311
;T02 Holesize 2. = 0.500000 Tolerance = +0.000000/-0.000000 PLATED MM Quantity = 2
;T03 Holesize 3. = 0.710000 Tolerance = +0.000000/-0.000000 PLATED MM Quantity = 12
;T04 Holesize 4. = 0.711200 Tolerance = +0.000000/-0.000000 PLATED MM Quantity = 3
;T05 Holesize 5. = 0.714000 Tolerance = +0.000000/-0.000000 PLATED MM Quantity = 3
;T06 Holesize 6. = 1.020000 Tolerance = +0.000000/-0.000000 PLATED MM Quantity = 6
;T07 Holesize 7. = 1.070000 Tolerance = +0.000000/-0.000000 PLATED MM Quantity = 4
;T08 Holesize 8. = 1.219200 Tolerance = +0.000000/-0.000000 PLATED MM Quantity = 3
;T09 Holesize 9. = 1.270000 Tolerance = +0.000000/-0.000000 PLATED MM Quantity = 2
;T10 Holesize 10. = 1.300000 Tolerance = +0.000000/-0.000000 PLATED MM Quantity = 12
;T11 Holesize 11. = 3.199900 Tolerance = +0.000000/-0.000000 NON_PLATED MM Quantity = 4
%
G90
T01
X01526Y08509
X08892Y01651
X10543Y08763
X62613Y0862
X66804Y0735
X68074Y09779
X70614Y0481
X72773Y0989
X76456Y0481
X79504Y07731
X85092Y0481
X89029Y09636
X90553Y19288
X84838Y13192
X79885Y10541
X78986Y1369
X72392Y12811
X70868Y11557
X68582Y20177
X68455Y15351
X67947Y12319
X65153Y17764
X64518Y14732
X63375Y12446
X62486Y16637
X58803Y14605
X57279Y13065
X55Y10391
X53215Y14859
X45706Y1116
X45595Y17129
X43815Y1651
X4318Y18415
X40134Y18415
X34419Y17653
X16639Y1143
X15877Y18542
X09527Y13081
X03812Y15113
X01526Y20701
X01526Y30226
X04066Y24765
X16131Y24257
X2592Y27299
X2592Y28569
X2592Y29839
X27825Y27299
X27825Y28569
X27825Y29839
X2973Y27299
X2973Y28569
X2973Y29839
X31635Y27299
X31635Y28569
X31635Y29839
X3354Y27299
X3354Y28569
X3354Y29839
X34925Y27305
X38862Y23368
X41658Y23368
X42926Y30099
X48262Y30353
X48897Y25146
X56517Y2921
X60575Y23981
X6147Y2667
X6248Y23854
X660574Y243834
X72519Y21701
X77345Y27035
X81409Y28829
X83695Y25781
X86997Y25781
X87632Y23749
X93855Y2513
X96776Y32258
X89791Y31496
X84965Y35052
X8052Y381
X77218Y34163
X7137Y39004
X7137Y34819
X69465Y34819
X63375Y3764
X62232Y3175
X6147Y3891
X6147Y35735
X56771Y34925
X45085Y3048
X44704Y40132
X40808Y40554
X34925Y3302
X3429Y3937
X3354Y36189
X3354Y34919
X3354Y33649
X3354Y32379
X3354Y31109
X31635Y36189
X31635Y34919
X31635Y33649
X31635Y32379
X31635Y31109
X2973Y36189
X2973Y34919
X2973Y33649
X2973Y32379
X2973Y31109
X27825Y36189
X27825Y34919
X27825Y33649
X27825Y32379
X27825Y31109
X2592Y36189
X2592Y34919
X2592Y33649
X2592Y32379
X2592Y31109
X14986Y38481
X14986Y36322
X14986Y34798
X09017Y38481
X09017Y3683
X09017Y34925
X04066Y34925
X01399Y37084
X08384Y45593
X09019Y49149
X14226Y46863
X30101Y42291
X31117Y48387
X34925Y4191
X37848Y47498
X49913Y49657
X52961Y49403
X54866Y43482
X56771Y43482
X63375Y45895
X68455Y49545
X69725Y47005
X7613Y47776
X76964Y47704
X78615Y44021
X78742Y48339
X79631Y4491
X79631Y4745
X80895Y4617
X82171Y4491
X82171Y4745
X82425Y41402
X8306Y48339
X83187Y43561
X87214Y4246
X88013Y45593
X9017Y48133
X90172Y50244
X97284Y41402
X97411Y51181
X88521Y55959
X84405Y5253
X83693Y55245
X80595Y5253
X79756Y5715
X69261Y5872
X6731Y55626
X58295Y60165
X57533Y54737
X55755Y60165
X51818Y54991
X49024Y54864
X46865Y57277
X44579Y57277
X34927Y60579
X34925Y56515
X34925Y51435
X1701Y59696
X1701Y58426
X1701Y57156
X1701Y55886
X1701Y54616
X1701Y53346
X15105Y59696
X15105Y58426
X15105Y57156
X15105Y55886
X15105Y54616
X15105Y53346
X132Y59696
X132Y58426
X132Y57156
X132Y55886
X132Y54616
X132Y53346
X11295Y59696
X11295Y58426
X11295Y57156
X11295Y55886
X11295Y54616
X11295Y53346
X0939Y59696
X0939Y58426
X0939Y57156
X0939Y55886
X0939Y54616
X0939Y53346
X06479Y56007
X02161Y60452
X01907Y52705
X02288Y6858
X06606Y63119
X0939Y60966
X0939Y62236
X11295Y60966
X11295Y62236
X132Y60966
X132Y62236
X14607Y67691
X15105Y60966
X15105Y62236
X1701Y60966
X1701Y62236
X22989Y64897
X26164Y63881
X27561Y67437
X35816Y65786
X4064Y67945
X4094Y70785
X42801Y70452
X43436Y61341
X48135Y62705
X48135Y65245
X48135Y67785
X48135Y70325
X49913Y61562
X50675Y62705
X51945Y6461
X53215Y62705
X54485Y6461
X55755Y62705
X56771Y66134
X58295Y62705
X58295Y65245
X58295Y67785
X58295Y70325
X7798Y65245
X7925Y67785
X81536Y64864
X82552Y6985
X82679Y67404
X87214Y70415
X90045Y70325
X90553Y66388
X92077Y68293
X92712Y61435
X97155Y635
X9779Y6985
X97155Y80645
X97155Y75565
X92077Y75311
X88775Y77945
X88521Y73373
X84405Y80485
X83314Y71628
X8306Y76294
X82171Y75405
X82171Y72865
X80895Y74125
X80595Y80485
X79631Y75405
X79631Y72865
X78742Y76294
X78742Y71976
X76964Y75659
X76785Y80485
X7613Y75731
X75186Y79375
X73154Y77597
X6528Y77597
X41277Y80645
X39628Y74645
X3861Y74643
X37467Y80137
X37467Y74643
X3683Y7239
X35943Y76835
X35308Y72357
X27307Y73152
X07368Y79756
X06352Y7112
X02034Y75946
X02288Y81788
X08384Y88773
X22862Y88392
X23497Y83312
X30101Y85471
X34673Y88011
X40642Y88392
X43309Y8382
X6528Y88105
X66169Y82136
X67439Y85598
X729Y88105
X7671Y88105
X80266Y8255
X8052Y88105
X84965Y88105
X88267Y82042
X88775Y88105
X9068Y8366
X92585Y88105
T02
X38735Y67945
X38735Y70485
T03
X11305Y6858
X11305Y7112
X11305Y7366
X31625Y1651
X31625Y1397
X31625Y1143
X5486Y15595
X574Y15595
X5994Y15595
X7264Y18135
X7518Y18135
X7772Y18135
T04
X4851Y2004
X497546Y2131
X4851Y2258
T05
X4699Y254
X4445Y2794
X4699Y3048
T06
X67945Y6604
X67945Y6858
X67945Y7112
X67945Y7366
X67945Y762
X67945Y7874
T07
X58035Y0734
X60575Y0734
X60575Y1115
X58035Y1115
T08
X9322Y2259
X9322Y2513
X9322Y2767
T09
X0305Y4191
X0305Y4699
T10
X38735Y4548
X43815Y4548
X93305Y1108
X93305Y1616
X94575Y3444
X94575Y3952
X94575Y466
X94575Y5168
X94575Y61395
X94575Y66475
X94575Y73555
X94575Y78635
T11
X03Y04
X03Y86
X95Y86
X95Y04
M30
